<?xml version="1.0" encoding="UTF-8" standalone="no"?><svg xmlns="http://www.w3.org/2000/svg" xmlns:xlink="http://www.w3.org/1999/xlink" clip-rule="evenodd" stroke-miterlimit="10" viewBox="0 0 1920 1080"><desc>SVG generated by Keynote</desc><defs></defs><g transform="matrix(1.00, 0.00, -0.00, -1.00, 0.0, 1080.0)"><path d="M 0.0 1080.0 L 1920.0 1080.0 L 1920.0 0.0 L 0.0 0.0 Z M 0.0 1080.0 " fill="#FFFFFF"></path><text xml:space="preserve" font-family="Apercu,Apercu" font-size="10.0" fill="#878787" transform="matrix(1.00, 0.00, -0.00, -1.00, 903.0, 11.2)">©</text><text xml:space="preserve" font-family="Apercu,Apercu" font-size="10.0" fill="#878787" transform="matrix(1.00, 0.00, -0.00, -1.00, 912.0, 11.2)"> </text><text xml:space="preserve" font-family="Apercu,Apercu" font-size="10.0" fill="#878787" transform="matrix(1.00, 0.00, -0.00, -1.00, 914.6, 11.2)">2</text><text xml:space="preserve" font-family="Apercu,Apercu" font-size="10.0" fill="#878787" transform="matrix(1.00, 0.00, -0.00, -1.00, 920.2, 11.2)">0</text><text xml:space="preserve" font-family="Apercu,Apercu" font-size="10.0" fill="#878787" transform="matrix(1.00, 0.00, -0.00, -1.00, 926.2, 11.2)">1</text><text xml:space="preserve" font-family="Apercu,Apercu" font-size="10.0" fill="#878787" transform="matrix(1.00, 0.00, -0.00, -1.00, 929.7, 11.2)">4</text><text xml:space="preserve" font-family="Apercu,Apercu" font-size="10.0" fill="#878787" transform="matrix(1.00, 0.00, -0.00, -1.00, 935.7, 11.2)"> </text><text xml:space="preserve" font-family="Apercu,Apercu" font-size="10.0" fill="#878787" transform="matrix(1.00, 0.00, -0.00, -1.00, 938.3, 11.2)">T</text><text xml:space="preserve" font-family="Apercu,Apercu" font-size="10.0" fill="#878787" transform="matrix(1.00, 0.00, -0.00, -1.00, 943.6, 11.2)">h</text><text xml:space="preserve" font-family="Apercu,Apercu" font-size="10.0" fill="#878787" transform="matrix(1.00, 0.00, -0.00, -1.00, 949.3, 11.2)">e</text><text xml:space="preserve" font-family="Apercu,Apercu" font-size="10.0" fill="#878787" transform="matrix(1.00, 0.00, -0.00, -1.00, 954.9, 11.2)"> </text><text xml:space="preserve" font-family="Apercu,Apercu" font-size="10.0" fill="#878787" transform="matrix(1.00, 0.00, -0.00, -1.00, 957.6, 11.2)">A</text><text xml:space="preserve" font-family="Apercu,Apercu" font-size="10.0" fill="#878787" transform="matrix(1.00, 0.00, -0.00, -1.00, 963.5, 11.2)">p</text><text xml:space="preserve" font-family="Apercu,Apercu" font-size="10.0" fill="#878787" transform="matrix(1.00, 0.00, -0.00, -1.00, 969.5, 11.2)">p</text><text xml:space="preserve" font-family="Apercu,Apercu" font-size="10.0" fill="#878787" transform="matrix(1.00, 0.00, -0.00, -1.00, 975.5, 11.2)"> </text><text xml:space="preserve" font-family="Apercu,Apercu" font-size="10.0" fill="#878787" transform="matrix(1.00, 0.00, -0.00, -1.00, 978.2, 11.2)">B</text><text xml:space="preserve" font-family="Apercu,Apercu" font-size="10.0" fill="#878787" transform="matrix(1.00, 0.00, -0.00, -1.00, 984.4, 11.2)">u</text><text xml:space="preserve" font-family="Apercu,Apercu" font-size="10.0" fill="#878787" transform="matrix(1.00, 0.00, -0.00, -1.00, 990.0, 11.2)">s</text><text xml:space="preserve" font-family="Apercu,Apercu" font-size="10.0" fill="#878787" transform="matrix(1.00, 0.00, -0.00, -1.00, 994.4, 11.2)">i</text><text xml:space="preserve" font-family="Apercu,Apercu" font-size="10.0" fill="#878787" transform="matrix(1.00, 0.00, -0.00, -1.00, 996.8, 11.2)">n</text><text xml:space="preserve" font-family="Apercu,Apercu" font-size="10.0" fill="#878787" transform="matrix(1.00, 0.00, -0.00, -1.00, 1002.4, 11.2)">e</text><text xml:space="preserve" font-family="Apercu,Apercu" font-size="10.0" fill="#878787" transform="matrix(1.00, 0.00, -0.00, -1.00, 1007.9, 11.2)">s</text><text xml:space="preserve" font-family="Apercu,Apercu" font-size="10.0" fill="#878787" transform="matrix(1.00, 0.00, -0.00, -1.00, 1012.4, 11.2)">s</text><text xml:space="preserve" font-family="Apercu-Bold,Apercu" font-weight="bold" font-size="66.0" fill="#FF4400" transform="matrix(1.00, 0.00, -0.00, -1.00, 662.4, 953.7)">N</text><text xml:space="preserve" font-family="Apercu-Bold,Apercu" font-weight="bold" font-size="66.0" fill="#FF4400" transform="matrix(1.00, 0.00, -0.00, -1.00, 708.9, 953.7)">e</text><text xml:space="preserve" font-family="Apercu-Bold,Apercu" font-weight="bold" font-size="66.0" fill="#FF4400" transform="matrix(1.00, 0.00, -0.00, -1.00, 745.6, 953.7)">w</text><text xml:space="preserve" font-family="Apercu-Bold,Apercu" font-weight="bold" font-size="66.0" fill="#FF4400" transform="matrix(1.00, 0.00, -0.00, -1.00, 796.2, 953.7)"> </text><text xml:space="preserve" font-family="Apercu-Bold,Apercu" font-weight="bold" font-size="66.0" fill="#FF4400" transform="matrix(1.00, 0.00, -0.00, -1.00, 812.5, 953.7)">c</text><text xml:space="preserve" font-family="Apercu-Bold,Apercu" font-weight="bold" font-size="66.0" fill="#FF4400" transform="matrix(1.00, 0.00, -0.00, -1.00, 849.4, 953.7)">o</text><text xml:space="preserve" font-family="Apercu-Bold,Apercu" font-weight="bold" font-size="66.0" fill="#FF4400" transform="matrix(1.00, 0.00, -0.00, -1.00, 888.2, 953.7)">n</text><text xml:space="preserve" font-family="Apercu-Bold,Apercu" font-weight="bold" font-size="66.0" fill="#FF4400" transform="matrix(1.00, 0.00, -0.00, -1.00, 926.6, 953.7)">c</text><text xml:space="preserve" font-family="Apercu-Bold,Apercu" font-weight="bold" font-size="66.0" fill="#FF4400" transform="matrix(1.00, 0.00, -0.00, -1.00, 963.5, 953.7)">e</text><text xml:space="preserve" font-family="Apercu-Bold,Apercu" font-weight="bold" font-size="66.0" fill="#FF4400" transform="matrix(1.00, 0.00, -0.00, -1.00, 1000.2, 953.7)">p</text><text xml:space="preserve" font-family="Apercu-Bold,Apercu" font-weight="bold" font-size="66.0" fill="#FF4400" transform="matrix(1.00, 0.00, -0.00, -1.00, 1039.9, 953.7)">t</text><text xml:space="preserve" font-family="Apercu-Bold,Apercu" font-weight="bold" font-size="66.0" fill="#FF4400" transform="matrix(1.00, 0.00, -0.00, -1.00, 1065.8, 953.7)">s</text><text xml:space="preserve" font-family="Apercu-Bold,Apercu" font-weight="bold" font-size="66.0" fill="#FF4400" transform="matrix(1.00, 0.00, -0.00, -1.00, 1095.9, 953.7)">!</text><text xml:space="preserve" font-family="Apercu-Bold,Apercu" font-weight="bold" font-size="66.0" fill="#FF4400" transform="matrix(1.00, 0.00, -0.00, -1.00, 1119.6, 953.7)"> </text><text xml:space="preserve" font-family="Apercu-Bold,Apercu" font-weight="bold" font-size="66.0" fill="#FF4400" transform="matrix(1.00, 0.00, -0.00, -1.00, 1136.0, 953.7)">Y</text><text xml:space="preserve" font-family="Apercu-Bold,Apercu" font-weight="bold" font-size="66.0" fill="#FF4400" transform="matrix(1.00, 0.00, -0.00, -1.00, 1168.3, 953.7)">a</text><text xml:space="preserve" font-family="Apercu-Bold,Apercu" font-weight="bold" font-size="66.0" fill="#FF4400" transform="matrix(1.00, 0.00, -0.00, -1.00, 1202.1, 953.7)">y</text><text xml:space="preserve" font-family="Apercu-Bold,Apercu" font-weight="bold" font-size="66.0" fill="#FF4400" transform="matrix(1.00, 0.00, -0.00, -1.00, 1233.8, 953.7)">!</text><text xml:space="preserve" font-family="Apercu-Bold,Apercu" font-weight="bold" font-size="50.0" fill="#444444" transform="matrix(1.00, 0.00, -0.00, -1.00, 352.8, 583.2)">T</text><text xml:space="preserve" font-family="Apercu-Bold,Apercu" font-weight="bold" font-size="50.0" fill="#444444" transform="matrix(1.00, 0.00, -0.00, -1.00, 379.6, 583.2)">h</text><text xml:space="preserve" font-family="Apercu-Bold,Apercu" font-weight="bold" font-size="50.0" fill="#444444" transform="matrix(1.00, 0.00, -0.00, -1.00, 409.5, 583.2)">e</text><text xml:space="preserve" font-family="Apercu-Bold,Apercu" font-weight="bold" font-size="50.0" fill="#444444" transform="matrix(1.00, 0.00, -0.00, -1.00, 437.3, 583.2)"> </text><text xml:space="preserve" font-family="Apercu-Bold,Apercu" font-weight="bold" font-size="50.0" fill="#444444" transform="matrix(1.00, 0.00, -0.00, -1.00, 449.7, 583.2)">r</text><text xml:space="preserve" font-family="Apercu-Bold,Apercu" font-weight="bold" font-size="50.0" fill="#444444" transform="matrix(1.00, 0.00, -0.00, -1.00, 470.9, 583.2)">o</text><text xml:space="preserve" font-family="Apercu-Bold,Apercu" font-weight="bold" font-size="50.0" fill="#444444" transform="matrix(1.00, 0.00, -0.00, -1.00, 500.6, 583.2)">u</text><text xml:space="preserve" font-family="Apercu-Bold,Apercu" font-weight="bold" font-size="50.0" fill="#444444" transform="matrix(1.00, 0.00, -0.00, -1.00, 529.9, 583.2)">t</text><text xml:space="preserve" font-family="Apercu-Bold,Apercu" font-weight="bold" font-size="50.0" fill="#444444" transform="matrix(1.00, 0.00, -0.00, -1.00, 549.2, 583.2)">e</text><text xml:space="preserve" font-family="Apercu-Bold,Apercu" font-weight="bold" font-size="50.0" fill="#444444" transform="matrix(1.00, 0.00, -0.00, -1.00, 576.9, 583.2)">r</text><text xml:space="preserve" font-family="Apercu-Bold,Apercu" font-weight="bold" font-size="50.0" fill="#444444" transform="matrix(1.00, 0.00, -0.00, -1.00, 598.0, 583.2)">:</text><text xml:space="preserve" font-family="Apercu-Bold,Apercu" font-weight="bold" font-size="50.0" fill="#444444" transform="matrix(1.00, 0.00, -0.00, -1.00, 614.9, 583.2)"> </text><text xml:space="preserve" font-family="Apercu-Bold,Apercu" font-weight="bold" font-size="50.0" fill="#444444" transform="matrix(1.00, 0.00, -0.00, -1.00, 627.2, 583.2)">M</text><text xml:space="preserve" font-family="Apercu-Bold,Apercu" font-weight="bold" font-size="50.0" fill="#444444" transform="matrix(1.00, 0.00, -0.00, -1.00, 667.2, 583.2)">a</text><text xml:space="preserve" font-family="Apercu-Bold,Apercu" font-weight="bold" font-size="50.0" fill="#444444" transform="matrix(1.00, 0.00, -0.00, -1.00, 692.5, 583.2)">p</text><text xml:space="preserve" font-family="Apercu-Bold,Apercu" font-weight="bold" font-size="50.0" fill="#444444" transform="matrix(1.00, 0.00, -0.00, -1.00, 722.2, 583.2)">s</text><text xml:space="preserve" font-family="Apercu-Bold,Apercu" font-weight="bold" font-size="50.0" fill="#444444" transform="matrix(1.00, 0.00, -0.00, -1.00, 745.0, 583.2)"> </text><text xml:space="preserve" font-family="Apercu-Bold,Apercu" font-weight="bold" font-size="50.0" fill="#444444" transform="matrix(1.00, 0.00, -0.00, -1.00, 757.5, 583.2)">t</text><text xml:space="preserve" font-family="Apercu-Bold,Apercu" font-weight="bold" font-size="50.0" fill="#444444" transform="matrix(1.00, 0.00, -0.00, -1.00, 776.8, 583.2)">h</text><text xml:space="preserve" font-family="Apercu-Bold,Apercu" font-weight="bold" font-size="50.0" fill="#444444" transform="matrix(1.00, 0.00, -0.00, -1.00, 806.6, 583.2)">e</text><text xml:space="preserve" font-family="Apercu-Bold,Apercu" font-weight="bold" font-size="50.0" fill="#444444" transform="matrix(1.00, 0.00, -0.00, -1.00, 834.5, 583.2)"> </text><text xml:space="preserve" font-family="Apercu-Bold,Apercu" font-weight="bold" font-size="50.0" fill="#444444" transform="matrix(1.00, 0.00, -0.00, -1.00, 846.8, 583.2)">U</text><text xml:space="preserve" font-family="Apercu-Bold,Apercu" font-weight="bold" font-size="50.0" fill="#444444" transform="matrix(1.00, 0.00, -0.00, -1.00, 877.9, 583.2)">R</text><text xml:space="preserve" font-family="Apercu-Bold,Apercu" font-weight="bold" font-size="50.0" fill="#444444" transform="matrix(1.00, 0.00, -0.00, -1.00, 909.1, 583.2)">L</text><text xml:space="preserve" font-family="Apercu-Bold,Apercu" font-weight="bold" font-size="50.0" fill="#444444" transform="matrix(1.00, 0.00, -0.00, -1.00, 935.6, 583.2)">s</text><text xml:space="preserve" font-family="Apercu-Bold,Apercu" font-weight="bold" font-size="50.0" fill="#444444" transform="matrix(1.00, 0.00, -0.00, -1.00, 958.4, 583.2)"> </text><text xml:space="preserve" font-family="Apercu-Bold,Apercu" font-weight="bold" font-size="50.0" fill="#444444" transform="matrix(1.00, 0.00, -0.00, -1.00, 970.8, 583.2)">w</text><text xml:space="preserve" font-family="Apercu-Bold,Apercu" font-weight="bold" font-size="50.0" fill="#444444" transform="matrix(1.00, 0.00, -0.00, -1.00, 1008.9, 583.2)">i</text><text xml:space="preserve" font-family="Apercu-Bold,Apercu" font-weight="bold" font-size="50.0" fill="#444444" transform="matrix(1.00, 0.00, -0.00, -1.00, 1022.4, 583.2)">t</text><text xml:space="preserve" font-family="Apercu-Bold,Apercu" font-weight="bold" font-size="50.0" fill="#444444" transform="matrix(1.00, 0.00, -0.00, -1.00, 1041.7, 583.2)">h</text><text xml:space="preserve" font-family="Apercu-Bold,Apercu" font-weight="bold" font-size="50.0" fill="#444444" transform="matrix(1.00, 0.00, -0.00, -1.00, 1071.3, 583.2)"> </text><text xml:space="preserve" font-family="Apercu-Bold,Apercu" font-weight="bold" font-size="50.0" fill="#444444" transform="matrix(1.00, 0.00, -0.00, -1.00, 1083.7, 583.2)">s</text><text xml:space="preserve" font-family="Apercu-Bold,Apercu" font-weight="bold" font-size="50.0" fill="#444444" transform="matrix(1.00, 0.00, -0.00, -1.00, 1106.3, 583.2)">e</text><text xml:space="preserve" font-family="Apercu-Bold,Apercu" font-weight="bold" font-size="50.0" fill="#444444" transform="matrix(1.00, 0.00, -0.00, -1.00, 1135.1, 583.2)">c</text><text xml:space="preserve" font-family="Apercu-Bold,Apercu" font-weight="bold" font-size="50.0" fill="#444444" transform="matrix(1.00, 0.00, -0.00, -1.00, 1163.7, 583.2)">t</text><text xml:space="preserve" font-family="Apercu-Bold,Apercu" font-weight="bold" font-size="50.0" fill="#444444" transform="matrix(1.00, 0.00, -0.00, -1.00, 1183.3, 583.2)">i</text><text xml:space="preserve" font-family="Apercu-Bold,Apercu" font-weight="bold" font-size="50.0" fill="#444444" transform="matrix(1.00, 0.00, -0.00, -1.00, 1196.8, 583.2)">o</text><text xml:space="preserve" font-family="Apercu-Bold,Apercu" font-weight="bold" font-size="50.0" fill="#444444" transform="matrix(1.00, 0.00, -0.00, -1.00, 1226.1, 583.2)">n</text><text xml:space="preserve" font-family="Apercu-Bold,Apercu" font-weight="bold" font-size="50.0" fill="#444444" transform="matrix(1.00, 0.00, -0.00, -1.00, 1255.0, 583.2)">s</text><text xml:space="preserve" font-family="Apercu-Bold,Apercu" font-weight="bold" font-size="50.0" fill="#444444" transform="matrix(1.00, 0.00, -0.00, -1.00, 1277.8, 583.2)"> </text><text xml:space="preserve" font-family="Apercu-Bold,Apercu" font-weight="bold" font-size="50.0" fill="#444444" transform="matrix(1.00, 0.00, -0.00, -1.00, 1290.2, 583.2)">o</text><text xml:space="preserve" font-family="Apercu-Bold,Apercu" font-weight="bold" font-size="50.0" fill="#444444" transform="matrix(1.00, 0.00, -0.00, -1.00, 1320.3, 583.2)">f</text><text xml:space="preserve" font-family="Apercu-Bold,Apercu" font-weight="bold" font-size="50.0" fill="#444444" transform="matrix(1.00, 0.00, -0.00, -1.00, 1338.7, 583.2)"> </text><text xml:space="preserve" font-family="Apercu-Bold,Apercu" font-weight="bold" font-size="50.0" fill="#444444" transform="matrix(1.00, 0.00, -0.00, -1.00, 1351.1, 583.2)">y</text><text xml:space="preserve" font-family="Apercu-Bold,Apercu" font-weight="bold" font-size="50.0" fill="#444444" transform="matrix(1.00, 0.00, -0.00, -1.00, 1375.1, 583.2)">o</text><text xml:space="preserve" font-family="Apercu-Bold,Apercu" font-weight="bold" font-size="50.0" fill="#444444" transform="matrix(1.00, 0.00, -0.00, -1.00, 1404.9, 583.2)">u</text><text xml:space="preserve" font-family="Apercu-Bold,Apercu" font-weight="bold" font-size="50.0" fill="#444444" transform="matrix(1.00, 0.00, -0.00, -1.00, 1432.9, 583.2)">r</text><text xml:space="preserve" font-family="Apercu-Bold,Apercu" font-weight="bold" font-size="50.0" fill="#444444" transform="matrix(1.00, 0.00, -0.00, -1.00, 1454.0, 583.2)"> </text><text xml:space="preserve" font-family="Apercu-Bold,Apercu" font-weight="bold" font-size="50.0" fill="#444444" transform="matrix(1.00, 0.00, -0.00, -1.00, 1466.4, 583.2)">a</text><text xml:space="preserve" font-family="Apercu-Bold,Apercu" font-weight="bold" font-size="50.0" fill="#444444" transform="matrix(1.00, 0.00, -0.00, -1.00, 1491.8, 583.2)">p</text><text xml:space="preserve" font-family="Apercu-Bold,Apercu" font-weight="bold" font-size="50.0" fill="#444444" transform="matrix(1.00, 0.00, -0.00, -1.00, 1521.7, 583.2)">p</text><text xml:space="preserve" font-family="Apercu-Bold,Apercu" font-weight="bold" font-size="50.0" fill="#444444" transform="matrix(1.00, 0.00, -0.00, -1.00, 1550.8, 583.2)">.</text><text xml:space="preserve" font-family="Apercu-Bold,Apercu" font-weight="bold" font-size="50.0" fill="#444444" transform="matrix(1.00, 0.00, -0.00, -1.00, 1567.2, 583.2)"> </text><text xml:space="preserve" font-family="Apercu-Bold,Apercu" font-weight="bold" font-size="50.0" fill="#444444" transform="matrix(1.00, 0.00, -0.00, -1.00, 595.5, 461.7)">T</text><text xml:space="preserve" font-family="Apercu-Bold,Apercu" font-weight="bold" font-size="50.0" fill="#444444" transform="matrix(1.00, 0.00, -0.00, -1.00, 622.4, 461.7)">h</text><text xml:space="preserve" font-family="Apercu-Bold,Apercu" font-weight="bold" font-size="50.0" fill="#444444" transform="matrix(1.00, 0.00, -0.00, -1.00, 652.3, 461.7)">e</text><text xml:space="preserve" font-family="Apercu-Bold,Apercu" font-weight="bold" font-size="50.0" fill="#444444" transform="matrix(1.00, 0.00, -0.00, -1.00, 680.1, 461.7)"> </text><text xml:space="preserve" font-family="Apercu-Bold,Apercu" font-weight="bold" font-size="50.0" fill="#444444" transform="matrix(1.00, 0.00, -0.00, -1.00, 692.5, 461.7)">r</text><text xml:space="preserve" font-family="Apercu-Bold,Apercu" font-weight="bold" font-size="50.0" fill="#444444" transform="matrix(1.00, 0.00, -0.00, -1.00, 713.7, 461.7)">o</text><text xml:space="preserve" font-family="Apercu-Bold,Apercu" font-weight="bold" font-size="50.0" fill="#444444" transform="matrix(1.00, 0.00, -0.00, -1.00, 743.4, 461.7)">u</text><text xml:space="preserve" font-family="Apercu-Bold,Apercu" font-weight="bold" font-size="50.0" fill="#444444" transform="matrix(1.00, 0.00, -0.00, -1.00, 772.7, 461.7)">t</text><text xml:space="preserve" font-family="Apercu-Bold,Apercu" font-weight="bold" font-size="50.0" fill="#444444" transform="matrix(1.00, 0.00, -0.00, -1.00, 792.0, 461.7)">e</text><text xml:space="preserve" font-family="Apercu-Bold,Apercu" font-weight="bold" font-size="50.0" fill="#444444" transform="matrix(1.00, 0.00, -0.00, -1.00, 819.8, 461.7)">s</text><text xml:space="preserve" font-family="Apercu-Bold,Apercu" font-weight="bold" font-size="50.0" fill="#444444" transform="matrix(1.00, 0.00, -0.00, -1.00, 842.6, 461.7)">:</text><text xml:space="preserve" font-family="Apercu-Bold,Apercu" font-weight="bold" font-size="50.0" fill="#444444" transform="matrix(1.00, 0.00, -0.00, -1.00, 859.5, 461.7)"> </text><text xml:space="preserve" font-family="Apercu-Bold,Apercu" font-weight="bold" font-size="50.0" fill="#444444" transform="matrix(1.00, 0.00, -0.00, -1.00, 871.9, 461.7)">T</text><text xml:space="preserve" font-family="Apercu-Bold,Apercu" font-weight="bold" font-size="50.0" fill="#444444" transform="matrix(1.00, 0.00, -0.00, -1.00, 898.8, 461.7)">h</text><text xml:space="preserve" font-family="Apercu-Bold,Apercu" font-weight="bold" font-size="50.0" fill="#444444" transform="matrix(1.00, 0.00, -0.00, -1.00, 928.7, 461.7)">e</text><text xml:space="preserve" font-family="Apercu-Bold,Apercu" font-weight="bold" font-size="50.0" fill="#444444" transform="matrix(1.00, 0.00, -0.00, -1.00, 956.5, 461.7)"> </text><text xml:space="preserve" font-family="Apercu-Bold,Apercu" font-weight="bold" font-size="50.0" fill="#444444" transform="matrix(1.00, 0.00, -0.00, -1.00, 968.9, 461.7)">g</text><text xml:space="preserve" font-family="Apercu-Bold,Apercu" font-weight="bold" font-size="50.0" fill="#444444" transform="matrix(1.00, 0.00, -0.00, -1.00, 994.8, 461.7)">l</text><text xml:space="preserve" font-family="Apercu-Bold,Apercu" font-weight="bold" font-size="50.0" fill="#444444" transform="matrix(1.00, 0.00, -0.00, -1.00, 1007.8, 461.7)">u</text><text xml:space="preserve" font-family="Apercu-Bold,Apercu" font-weight="bold" font-size="50.0" fill="#444444" transform="matrix(1.00, 0.00, -0.00, -1.00, 1036.7, 461.7)">e</text><text xml:space="preserve" font-family="Apercu-Bold,Apercu" font-weight="bold" font-size="50.0" fill="#444444" transform="matrix(1.00, 0.00, -0.00, -1.00, 1064.5, 461.7)"> </text><text xml:space="preserve" font-family="Apercu-Bold,Apercu" font-weight="bold" font-size="50.0" fill="#444444" transform="matrix(1.00, 0.00, -0.00, -1.00, 1076.9, 461.7)">i</text><text xml:space="preserve" font-family="Apercu-Bold,Apercu" font-weight="bold" font-size="50.0" fill="#444444" transform="matrix(1.00, 0.00, -0.00, -1.00, 1088.8, 461.7)">n</text><text xml:space="preserve" font-family="Apercu-Bold,Apercu" font-weight="bold" font-size="50.0" fill="#444444" transform="matrix(1.00, 0.00, -0.00, -1.00, 1118.2, 461.7)"> </text><text xml:space="preserve" font-family="Apercu-Bold,Apercu" font-weight="bold" font-size="50.0" fill="#444444" transform="matrix(1.00, 0.00, -0.00, -1.00, 1130.6, 461.7)">t</text><text xml:space="preserve" font-family="Apercu-Bold,Apercu" font-weight="bold" font-size="50.0" fill="#444444" transform="matrix(1.00, 0.00, -0.00, -1.00, 1149.9, 461.7)">h</text><text xml:space="preserve" font-family="Apercu-Bold,Apercu" font-weight="bold" font-size="50.0" fill="#444444" transform="matrix(1.00, 0.00, -0.00, -1.00, 1179.8, 461.7)">e</text><text xml:space="preserve" font-family="Apercu-Bold,Apercu" font-weight="bold" font-size="50.0" fill="#444444" transform="matrix(1.00, 0.00, -0.00, -1.00, 1207.6, 461.7)"> </text><text xml:space="preserve" font-family="Apercu-Bold,Apercu" font-weight="bold" font-size="50.0" fill="#444444" transform="matrix(1.00, 0.00, -0.00, -1.00, 1220.0, 461.7)">M</text><text xml:space="preserve" font-family="Apercu-Bold,Apercu" font-weight="bold" font-size="50.0" fill="#444444" transform="matrix(1.00, 0.00, -0.00, -1.00, 1260.1, 461.7)">V</text><text xml:space="preserve" font-family="Apercu-Bold,Apercu" font-weight="bold" font-size="50.0" fill="#444444" transform="matrix(1.00, 0.00, -0.00, -1.00, 1289.5, 461.7)">C</text></g></svg>