<?xml version="1.0" encoding="UTF-8" standalone="no"?><svg xmlns="http://www.w3.org/2000/svg" xmlns:xlink="http://www.w3.org/1999/xlink" clip-rule="evenodd" stroke-miterlimit="10" viewBox="0 0 1920 1080"><desc>SVG generated by Keynote</desc><defs></defs><g transform="matrix(1.00, 0.00, -0.00, -1.00, 0.0, 1080.0)"><path d="M 0.0 1080.0 L 1920.0 1080.0 L 1920.0 0.0 L 0.0 0.0 Z M 0.0 1080.0 " fill="#FF4400"></path><g><clipPath id="clip0x6000006bc560"><path d="M 832.0 832.0 L 1088.0 832.0 L 1088.0 576.0 L 832.0 576.0 Z M 832.0 832.0 "></path></clipPath><g clip-path="url(#clip0x6000006bc560)"><g><clipPath id="clip0x6000006bc6e0"><path d="M 832.0 576.0 L 1088.0 576.0 L 1088.0 832.0 L 832.0 832.0 Z M 832.0 576.0 "></path></clipPath><g clip-path="url(#clip0x6000006bc6e0)"><path d="M 1043.7 687.2 L 1043.7 692.2 C 1043.7 697.1 1040.3 700.4 1034.3 700.4 C 1028.3 700.4 1024.9 697.5 1024.9 692.7 L 1024.9 689.9 C 1024.9 679.4 1038.1 680.0 1038.1 673.8 L 1038.1 671.5 C 1038.1 669.6 1036.5 668.6 1034.3 668.6 C 1032.1 668.6 1030.3 669.7 1030.3 671.9 L 1030.3 676.9 L 1024.7 676.9 L 1024.7 671.9 C 1024.7 667.0 1028.2 663.6 1034.2 663.6 C 1040.2 663.6 1044.0 666.8 1044.0 671.7 L 1044.0 674.1 C 1044.0 684.5 1030.8 683.8 1030.8 690.0 L 1030.8 692.7 C 1030.8 694.4 1032.1 695.5 1034.3 695.5 C 1036.5 695.5 1038.0 694.2 1038.0 692.2 L 1038.0 687.2 L 1043.7 687.2 Z M 946.4 664.0 L 952.2 664.0 L 952.2 700.0 L 946.4 700.0 Z M 834.0 764.0 L 846.0 764.0 C 847.1 764.0 848.0 764.9 848.0 766.0 L 848.0 788.0 C 848.0 803.5 860.5 816.0 876.0 816.0 L 898.0 816.0 C 899.1 816.0 900.0 816.9 900.0 818.0 L 900.0 830.0 C 900.0 831.1 899.1 832.0 898.0 832.0 L 876.0 832.0 C 851.7 832.0 832.0 812.3 832.0 788.0 L 832.0 766.0 C 832.0 764.9 832.9 764.0 834.0 764.0 Z M 912.9 671.9 C 912.9 669.7 911.4 668.6 909.1 668.6 C 906.9 668.6 905.3 669.7 905.3 671.9 L 905.3 700.0 L 899.5 700.0 L 899.5 671.9 C 899.5 667.0 903.2 663.6 909.1 663.6 C 915.1 663.6 918.8 667.0 918.8 671.9 L 918.8 700.0 L 912.9 700.0 L 912.9 671.9 Z M 898.0 592.0 L 876.0 592.0 C 860.5 592.0 848.0 604.5 848.0 620.0 L 848.0 642.0 C 848.0 643.1 847.1 644.0 846.0 644.0 L 834.0 644.0 C 832.9 644.0 832.0 643.1 832.0 642.0 L 832.0 620.0 C 832.0 595.7 851.7 576.0 876.0 576.0 L 898.0 576.0 C 899.1 576.0 900.0 576.9 900.0 578.0 L 900.0 590.0 C 900.0 591.1 899.1 592.0 898.0 592.0 Z M 929.0 690.0 L 929.0 692.7 C 929.0 694.4 930.3 695.5 932.5 695.5 C 934.8 695.5 936.3 694.2 936.3 692.2 L 936.3 687.2 L 941.9 687.2 L 941.9 692.2 C 941.9 697.1 938.5 700.4 932.5 700.4 C 926.5 700.4 923.1 697.5 923.1 692.7 L 923.1 689.9 C 923.1 679.4 936.3 680.0 936.3 673.8 L 936.3 671.5 C 936.3 669.6 934.8 668.6 932.5 668.6 C 930.3 668.6 928.6 669.7 928.6 671.9 L 928.6 676.9 L 922.9 676.9 L 922.9 671.9 C 922.9 667.0 926.4 663.6 932.4 663.6 C 938.4 663.6 942.2 666.8 942.2 671.7 L 942.2 674.1 C 942.2 684.5 929.0 683.8 929.0 690.0 Z M 970.5 721.7 L 973.1 734.9 L 975.6 721.7 L 970.5 721.7 Z M 976.2 744.3 L 970.3 744.3 L 961.8 708.0 L 967.8 708.0 L 969.6 716.8 L 976.6 716.8 L 978.3 708.0 L 984.4 708.0 L 976.2 744.3 Z M 1044.0 832.0 L 1022.0 832.0 C 1020.9 832.0 1020.0 831.1 1020.0 830.0 L 1020.0 818.0 C 1020.0 816.9 1020.9 816.0 1022.0 816.0 L 1044.0 816.0 C 1059.5 816.0 1072.0 803.5 1072.0 788.0 L 1072.0 766.0 C 1072.0 764.9 1072.9 764.0 1074.0 764.0 L 1086.0 764.0 C 1087.1 764.0 1088.0 764.9 1088.0 766.0 L 1088.0 788.0 C 1088.0 812.3 1068.3 832.0 1044.0 832.0 Z M 1086.0 644.0 L 1074.0 644.0 C 1072.9 644.0 1072.0 643.1 1072.0 642.0 L 1072.0 620.0 C 1072.0 604.5 1059.5 592.0 1044.0 592.0 L 1022.0 592.0 C 1020.9 592.0 1020.0 591.1 1020.0 590.0 L 1020.0 578.0 C 1020.0 576.9 1020.9 576.0 1022.0 576.0 L 1044.0 576.0 C 1068.3 576.0 1088.0 595.7 1088.0 620.0 L 1088.0 642.0 C 1088.0 643.1 1087.1 644.0 1086.0 644.0 Z M 1021.5 674.1 C 1021.5 684.5 1008.3 683.8 1008.3 690.0 L 1008.3 692.7 C 1008.3 694.4 1009.6 695.5 1011.8 695.5 C 1014.1 695.5 1015.6 694.2 1015.6 692.2 L 1015.6 687.2 L 1021.3 687.2 L 1021.3 692.2 C 1021.3 697.1 1017.8 700.4 1011.8 700.4 C 1005.9 700.4 1002.5 697.5 1002.5 692.7 L 1002.5 689.9 C 1002.5 679.4 1015.6 680.0 1015.6 673.8 L 1015.6 671.5 C 1015.6 669.6 1014.1 668.6 1011.8 668.6 C 1009.6 668.6 1007.9 669.7 1007.9 671.9 L 1007.9 676.9 L 1002.2 676.9 L 1002.2 671.9 C 1002.2 667.0 1005.7 663.6 1011.7 663.6 C 1017.7 663.6 1021.5 666.8 1021.5 671.7 L 1021.5 674.1 Z M 982.7 664.0 L 999.4 664.0 L 999.4 668.8 L 988.6 668.8 L 988.6 679.7 L 997.5 679.7 L 997.5 684.6 L 988.6 684.6 L 988.6 695.2 L 999.4 695.2 L 999.4 700.0 L 982.7 700.0 L 982.7 664.0 Z M 972.1 686.6 C 972.1 683.7 972.1 680.7 972.3 677.2 L 963.7 700.0 L 957.4 700.0 L 957.4 664.0 L 962.9 664.0 L 962.9 677.4 C 962.9 680.4 962.8 683.5 962.7 687.0 L 971.5 664.0 L 977.5 664.0 L 977.5 700.0 L 972.1 700.0 L 972.1 686.6 Z M 1015.8 739.2 L 1019.6 739.2 C 1021.8 739.2 1023.1 737.9 1023.1 735.9 L 1023.1 729.7 C 1023.1 727.5 1021.8 726.3 1019.6 726.3 L 1015.8 726.3 L 1015.8 739.2 Z M 1015.8 721.5 L 1019.6 721.5 C 1025.6 721.5 1029.0 724.8 1029.0 729.7 L 1029.0 735.9 C 1029.0 740.7 1025.6 744.0 1019.6 744.0 L 1009.9 744.0 L 1009.9 708.0 L 1015.8 708.0 L 1015.8 721.5 Z M 952.2 712.8 L 941.4 712.8 L 941.4 723.7 L 950.3 723.7 L 950.3 728.6 L 941.4 728.6 L 941.4 739.2 L 952.2 739.2 L 952.2 744.0 L 935.5 744.0 L 935.5 708.0 L 952.2 708.0 L 952.2 712.8 Z M 916.6 723.7 L 924.4 723.7 L 924.4 708.0 L 930.3 708.0 L 930.3 744.0 L 924.4 744.0 L 924.4 728.6 L 916.6 728.6 L 916.6 744.0 L 910.7 744.0 L 910.7 708.0 L 916.6 708.0 L 916.6 723.7 Z M 901.4 708.0 L 901.4 739.2 L 907.2 739.2 L 907.2 744.0 L 889.8 744.0 L 889.8 739.2 L 895.6 739.2 L 895.6 708.0 L 901.4 708.0 Z M 993.2 739.2 L 997.0 739.2 C 999.2 739.2 1000.5 737.9 1000.5 735.9 L 1000.5 729.7 C 1000.5 727.5 999.2 726.3 997.0 726.3 L 993.2 726.3 L 993.2 739.2 Z M 993.2 721.5 L 997.0 721.5 C 1003.0 721.5 1006.4 724.8 1006.4 729.7 L 1006.4 735.9 C 1006.4 740.7 1003.0 744.0 997.0 744.0 L 987.3 744.0 L 987.3 708.0 L 993.2 708.0 L 993.2 721.5 Z M 889.6 671.9 C 889.6 669.7 888.3 668.8 886.3 668.8 L 881.8 668.8 L 881.8 679.7 L 886.3 679.7 C 888.2 679.7 889.6 678.7 889.6 676.7 L 889.6 671.9 Z M 881.8 695.2 L 885.7 695.2 C 887.4 695.2 888.7 694.4 888.7 692.3 L 888.7 687.5 C 888.7 685.5 887.4 684.6 885.7 684.6 L 881.8 684.6 L 881.8 695.2 Z M 894.6 688.0 L 894.6 692.6 C 894.6 697.5 891.4 700.0 885.9 700.0 L 875.9 700.0 L 875.9 664.0 L 886.3 664.0 C 892.3 664.0 895.5 666.8 895.5 671.7 L 895.5 676.5 C 895.5 679.4 893.8 681.4 891.3 682.5 C 893.3 683.6 894.6 685.4 894.6 688.0 " fill="#FFFFFF"></path></g></g></g></g><g opacity="0.75"><g><clipPath id="clip0x6000006bc980"><path d="M 79.0 4.0 L 1841.0 4.0 L 1841.0 25.0 L 79.0 25.0 Z M 79.0 4.0 "></path></clipPath><g clip-path="url(#clip0x6000006bc980)"><text xml:space="preserve" font-family="Apercu,Apercu" font-size="10.0" fill="#FEFFFF" transform="matrix(1.00, 0.00, -0.00, -1.00, 903.0, 11.2)">©</text><text xml:space="preserve" font-family="Apercu,Apercu" font-size="10.0" fill="#FEFFFF" transform="matrix(1.00, 0.00, -0.00, -1.00, 912.0, 11.2)"> </text><text xml:space="preserve" font-family="Apercu,Apercu" font-size="10.0" fill="#FEFFFF" transform="matrix(1.00, 0.00, -0.00, -1.00, 914.6, 11.2)">2</text><text xml:space="preserve" font-family="Apercu,Apercu" font-size="10.0" fill="#FEFFFF" transform="matrix(1.00, 0.00, -0.00, -1.00, 920.2, 11.2)">0</text><text xml:space="preserve" font-family="Apercu,Apercu" font-size="10.0" fill="#FEFFFF" transform="matrix(1.00, 0.00, -0.00, -1.00, 926.2, 11.2)">1</text><text xml:space="preserve" font-family="Apercu,Apercu" font-size="10.0" fill="#FEFFFF" transform="matrix(1.00, 0.00, -0.00, -1.00, 929.7, 11.2)">4</text><text xml:space="preserve" font-family="Apercu,Apercu" font-size="10.0" fill="#FEFFFF" transform="matrix(1.00, 0.00, -0.00, -1.00, 935.7, 11.2)"> </text><text xml:space="preserve" font-family="Apercu,Apercu" font-size="10.0" fill="#FEFFFF" transform="matrix(1.00, 0.00, -0.00, -1.00, 938.3, 11.2)">T</text><text xml:space="preserve" font-family="Apercu,Apercu" font-size="10.0" fill="#FEFFFF" transform="matrix(1.00, 0.00, -0.00, -1.00, 943.6, 11.2)">h</text><text xml:space="preserve" font-family="Apercu,Apercu" font-size="10.0" fill="#FEFFFF" transform="matrix(1.00, 0.00, -0.00, -1.00, 949.3, 11.2)">e</text><text xml:space="preserve" font-family="Apercu,Apercu" font-size="10.0" fill="#FEFFFF" transform="matrix(1.00, 0.00, -0.00, -1.00, 954.9, 11.2)"> </text><text xml:space="preserve" font-family="Apercu,Apercu" font-size="10.0" fill="#FEFFFF" transform="matrix(1.00, 0.00, -0.00, -1.00, 957.6, 11.2)">A</text><text xml:space="preserve" font-family="Apercu,Apercu" font-size="10.0" fill="#FEFFFF" transform="matrix(1.00, 0.00, -0.00, -1.00, 963.5, 11.2)">p</text><text xml:space="preserve" font-family="Apercu,Apercu" font-size="10.0" fill="#FEFFFF" transform="matrix(1.00, 0.00, -0.00, -1.00, 969.5, 11.2)">p</text><text xml:space="preserve" font-family="Apercu,Apercu" font-size="10.0" fill="#FEFFFF" transform="matrix(1.00, 0.00, -0.00, -1.00, 975.5, 11.2)"> </text><text xml:space="preserve" font-family="Apercu,Apercu" font-size="10.0" fill="#FEFFFF" transform="matrix(1.00, 0.00, -0.00, -1.00, 978.2, 11.2)">B</text><text xml:space="preserve" font-family="Apercu,Apercu" font-size="10.0" fill="#FEFFFF" transform="matrix(1.00, 0.00, -0.00, -1.00, 984.4, 11.2)">u</text><text xml:space="preserve" font-family="Apercu,Apercu" font-size="10.0" fill="#FEFFFF" transform="matrix(1.00, 0.00, -0.00, -1.00, 990.0, 11.2)">s</text><text xml:space="preserve" font-family="Apercu,Apercu" font-size="10.0" fill="#FEFFFF" transform="matrix(1.00, 0.00, -0.00, -1.00, 994.4, 11.2)">i</text><text xml:space="preserve" font-family="Apercu,Apercu" font-size="10.0" fill="#FEFFFF" transform="matrix(1.00, 0.00, -0.00, -1.00, 996.8, 11.2)">n</text><text xml:space="preserve" font-family="Apercu,Apercu" font-size="10.0" fill="#FEFFFF" transform="matrix(1.00, 0.00, -0.00, -1.00, 1002.4, 11.2)">e</text><text xml:space="preserve" font-family="Apercu,Apercu" font-size="10.0" fill="#FEFFFF" transform="matrix(1.00, 0.00, -0.00, -1.00, 1007.9, 11.2)">s</text><text xml:space="preserve" font-family="Apercu,Apercu" font-size="10.0" fill="#FEFFFF" transform="matrix(1.00, 0.00, -0.00, -1.00, 1012.4, 11.2)">s</text></g></g></g><text xml:space="preserve" font-family="Apercu-Bold,Apercu" font-weight="bold" font-size="88.0" fill="#FEFFFF" transform="matrix(1.00, 0.00, -0.00, -1.00, 480.1, 355.2)">S</text><text xml:space="preserve" font-family="Apercu-Bold,Apercu" font-weight="bold" font-size="88.0" fill="#FEFFFF" transform="matrix(1.00, 0.00, -0.00, -1.00, 527.4, 355.2)">n</text><text xml:space="preserve" font-family="Apercu-Bold,Apercu" font-weight="bold" font-size="88.0" fill="#FEFFFF" transform="matrix(1.00, 0.00, -0.00, -1.00, 578.7, 355.2)">e</text><text xml:space="preserve" font-family="Apercu-Bold,Apercu" font-weight="bold" font-size="88.0" fill="#FEFFFF" transform="matrix(1.00, 0.00, -0.00, -1.00, 628.6, 355.2)">a</text><text xml:space="preserve" font-family="Apercu-Bold,Apercu" font-weight="bold" font-size="88.0" fill="#FEFFFF" transform="matrix(1.00, 0.00, -0.00, -1.00, 673.5, 355.2)">k</text><text xml:space="preserve" font-family="Apercu-Bold,Apercu" font-weight="bold" font-size="88.0" fill="#FEFFFF" transform="matrix(1.00, 0.00, -0.00, -1.00, 720.7, 355.2)"> </text><text xml:space="preserve" font-family="Apercu-Bold,Apercu" font-weight="bold" font-size="88.0" fill="#FEFFFF" transform="matrix(1.00, 0.00, -0.00, -1.00, 742.6, 355.2)">p</text><text xml:space="preserve" font-family="Apercu-Bold,Apercu" font-weight="bold" font-size="88.0" fill="#FEFFFF" transform="matrix(1.00, 0.00, -0.00, -1.00, 795.9, 355.2)">e</text><text xml:space="preserve" font-family="Apercu-Bold,Apercu" font-weight="bold" font-size="88.0" fill="#FEFFFF" transform="matrix(1.00, 0.00, -0.00, -1.00, 846.7, 355.2)">e</text><text xml:space="preserve" font-family="Apercu-Bold,Apercu" font-weight="bold" font-size="88.0" fill="#FEFFFF" transform="matrix(1.00, 0.00, -0.00, -1.00, 895.6, 355.2)">k</text><text xml:space="preserve" font-family="Apercu-Bold,Apercu" font-weight="bold" font-size="88.0" fill="#FEFFFF" transform="matrix(1.00, 0.00, -0.00, -1.00, 942.8, 355.2)"> </text><text xml:space="preserve" font-family="Apercu-Bold,Apercu" font-weight="bold" font-size="88.0" fill="#FEFFFF" transform="matrix(1.00, 0.00, -0.00, -1.00, 964.7, 355.2)">o</text><text xml:space="preserve" font-family="Apercu-Bold,Apercu" font-weight="bold" font-size="88.0" fill="#FEFFFF" transform="matrix(1.00, 0.00, -0.00, -1.00, 1016.3, 355.2)">n</text><text xml:space="preserve" font-family="Apercu-Bold,Apercu" font-weight="bold" font-size="88.0" fill="#FEFFFF" transform="matrix(1.00, 0.00, -0.00, -1.00, 1068.0, 355.2)"> </text><text xml:space="preserve" font-family="Apercu-Bold,Apercu" font-weight="bold" font-size="88.0" fill="#FEFFFF" transform="matrix(1.00, 0.00, -0.00, -1.00, 1089.8, 355.2)">E</text><text xml:space="preserve" font-family="Apercu-Bold,Apercu" font-weight="bold" font-size="88.0" fill="#FEFFFF" transform="matrix(1.00, 0.00, -0.00, -1.00, 1140.4, 355.2)">m</text><text xml:space="preserve" font-family="Apercu-Bold,Apercu" font-weight="bold" font-size="88.0" fill="#FEFFFF" transform="matrix(1.00, 0.00, -0.00, -1.00, 1215.4, 355.2)">b</text><text xml:space="preserve" font-family="Apercu-Bold,Apercu" font-weight="bold" font-size="88.0" fill="#FEFFFF" transform="matrix(1.00, 0.00, -0.00, -1.00, 1268.7, 355.2)">e</text><text xml:space="preserve" font-family="Apercu-Bold,Apercu" font-weight="bold" font-size="88.0" fill="#FEFFFF" transform="matrix(1.00, 0.00, -0.00, -1.00, 1317.3, 355.2)">r</text><text xml:space="preserve" font-family="Apercu-Bold,Apercu" font-weight="bold" font-size="88.0" fill="#FEFFFF" transform="matrix(1.00, 0.00, -0.00, -1.00, 1348.0, 355.2)">.</text><text xml:space="preserve" font-family="Apercu-Bold,Apercu" font-weight="bold" font-size="88.0" fill="#FEFFFF" transform="matrix(1.00, 0.00, -0.00, -1.00, 1376.9, 355.2)">j</text><text xml:space="preserve" font-family="Apercu-Bold,Apercu" font-weight="bold" font-size="88.0" fill="#FEFFFF" transform="matrix(1.00, 0.00, -0.00, -1.00, 1399.7, 355.2)">s</text><text xml:space="preserve" font-family="Apercu,Apercu" font-size="44.0" fill="#FEFFFF" transform="matrix(1.00, 0.00, -0.00, -1.00, 747.9, 284.2)">(</text><text xml:space="preserve" font-family="Apercu,Apercu" font-size="44.0" fill="#FEFFFF" transform="matrix(1.00, 0.00, -0.00, -1.00, 760.7, 284.2)">a</text><text xml:space="preserve" font-family="Apercu,Apercu" font-size="44.0" fill="#FEFFFF" transform="matrix(1.00, 0.00, -0.00, -1.00, 783.0, 284.2)">n</text><text xml:space="preserve" font-family="Apercu,Apercu" font-size="44.0" fill="#FEFFFF" transform="matrix(1.00, 0.00, -0.00, -1.00, 807.8, 284.2)">d</text><text xml:space="preserve" font-family="Apercu,Apercu" font-size="44.0" fill="#FEFFFF" transform="matrix(1.00, 0.00, -0.00, -1.00, 834.3, 284.2)"> </text><text xml:space="preserve" font-family="Apercu,Apercu" font-size="44.0" fill="#FEFFFF" transform="matrix(1.00, 0.00, -0.00, -1.00, 846.1, 284.2)">i</text><text xml:space="preserve" font-family="Apercu,Apercu" font-size="44.0" fill="#FEFFFF" transform="matrix(1.00, 0.00, -0.00, -1.00, 857.8, 284.2)">t</text><text xml:space="preserve" font-family="Apercu,Apercu" font-size="44.0" fill="#FEFFFF" transform="matrix(1.00, 0.00, -0.00, -1.00, 874.3, 284.2)">s</text><text xml:space="preserve" font-family="Apercu,Apercu" font-size="44.0" fill="#FEFFFF" transform="matrix(1.00, 0.00, -0.00, -1.00, 894.6, 284.2)"> </text><text xml:space="preserve" font-family="Apercu,Apercu" font-size="44.0" fill="#FEFFFF" transform="matrix(1.00, 0.00, -0.00, -1.00, 906.4, 284.2)">e</text><text xml:space="preserve" font-family="Apercu,Apercu" font-size="44.0" fill="#FEFFFF" transform="matrix(1.00, 0.00, -0.00, -1.00, 931.1, 284.2)">n</text><text xml:space="preserve" font-family="Apercu,Apercu" font-size="44.0" fill="#FEFFFF" transform="matrix(1.00, 0.00, -0.00, -1.00, 956.5, 284.2)">v</text><text xml:space="preserve" font-family="Apercu,Apercu" font-size="44.0" fill="#FEFFFF" transform="matrix(1.00, 0.00, -0.00, -1.00, 976.2, 284.2)">i</text><text xml:space="preserve" font-family="Apercu,Apercu" font-size="44.0" fill="#FEFFFF" transform="matrix(1.00, 0.00, -0.00, -1.00, 986.9, 284.2)">r</text><text xml:space="preserve" font-family="Apercu,Apercu" font-size="44.0" fill="#FEFFFF" transform="matrix(1.00, 0.00, -0.00, -1.00, 1004.2, 284.2)">o</text><text xml:space="preserve" font-family="Apercu,Apercu" font-size="44.0" fill="#FEFFFF" transform="matrix(1.00, 0.00, -0.00, -1.00, 1029.9, 284.2)">n</text><text xml:space="preserve" font-family="Apercu,Apercu" font-size="44.0" fill="#FEFFFF" transform="matrix(1.00, 0.00, -0.00, -1.00, 1055.2, 284.2)">m</text><text xml:space="preserve" font-family="Apercu,Apercu" font-size="44.0" fill="#FEFFFF" transform="matrix(1.00, 0.00, -0.00, -1.00, 1092.6, 284.2)">e</text><text xml:space="preserve" font-family="Apercu,Apercu" font-size="44.0" fill="#FEFFFF" transform="matrix(1.00, 0.00, -0.00, -1.00, 1117.4, 284.2)">n</text><text xml:space="preserve" font-family="Apercu,Apercu" font-size="44.0" fill="#FEFFFF" transform="matrix(1.00, 0.00, -0.00, -1.00, 1142.6, 284.2)">t</text><text xml:space="preserve" font-family="Apercu,Apercu" font-size="44.0" fill="#FEFFFF" transform="matrix(1.00, 0.00, -0.00, -1.00, 1159.3, 284.2)">)</text></g></svg>