<?xml version="1.0" encoding="UTF-8" standalone="no"?><svg xmlns="http://www.w3.org/2000/svg" xmlns:xlink="http://www.w3.org/1999/xlink" clip-rule="evenodd" stroke-miterlimit="10" viewBox="0 0 1920 1080"><desc>SVG generated by Keynote</desc><defs></defs><g transform="matrix(1.00, 0.00, -0.00, -1.00, 0.0, 1080.0)"><path d="M 0.0 1080.0 L 1920.0 1080.0 L 1920.0 0.0 L 0.0 0.0 Z M 0.0 1080.0 " fill="#FEFFFE"></path><g opacity="0.75"><g><clipPath id="clip0x6100008aaec0"><path d="M 79.0 4.0 L 1841.0 4.0 L 1841.0 25.0 L 79.0 25.0 Z M 79.0 4.0 "></path></clipPath><g clip-path="url(#clip0x6100008aaec0)"><text xml:space="preserve" font-family="Apercu,Apercu" font-size="10.0" fill="#999999" transform="matrix(1.00, 0.00, -0.00, -1.00, 903.0, 11.2)">©</text><text xml:space="preserve" font-family="Apercu,Apercu" font-size="10.0" fill="#999999" transform="matrix(1.00, 0.00, -0.00, -1.00, 912.0, 11.2)"> </text><text xml:space="preserve" font-family="Apercu,Apercu" font-size="10.0" fill="#999999" transform="matrix(1.00, 0.00, -0.00, -1.00, 914.6, 11.2)">2</text><text xml:space="preserve" font-family="Apercu,Apercu" font-size="10.0" fill="#999999" transform="matrix(1.00, 0.00, -0.00, -1.00, 920.2, 11.2)">0</text><text xml:space="preserve" font-family="Apercu,Apercu" font-size="10.0" fill="#999999" transform="matrix(1.00, 0.00, -0.00, -1.00, 926.2, 11.2)">1</text><text xml:space="preserve" font-family="Apercu,Apercu" font-size="10.0" fill="#999999" transform="matrix(1.00, 0.00, -0.00, -1.00, 929.7, 11.2)">4</text><text xml:space="preserve" font-family="Apercu,Apercu" font-size="10.0" fill="#999999" transform="matrix(1.00, 0.00, -0.00, -1.00, 935.7, 11.2)"> </text><text xml:space="preserve" font-family="Apercu,Apercu" font-size="10.0" fill="#999999" transform="matrix(1.00, 0.00, -0.00, -1.00, 938.3, 11.2)">T</text><text xml:space="preserve" font-family="Apercu,Apercu" font-size="10.0" fill="#999999" transform="matrix(1.00, 0.00, -0.00, -1.00, 943.6, 11.2)">h</text><text xml:space="preserve" font-family="Apercu,Apercu" font-size="10.0" fill="#999999" transform="matrix(1.00, 0.00, -0.00, -1.00, 949.3, 11.2)">e</text><text xml:space="preserve" font-family="Apercu,Apercu" font-size="10.0" fill="#999999" transform="matrix(1.00, 0.00, -0.00, -1.00, 954.9, 11.2)"> </text><text xml:space="preserve" font-family="Apercu,Apercu" font-size="10.0" fill="#999999" transform="matrix(1.00, 0.00, -0.00, -1.00, 957.6, 11.2)">A</text><text xml:space="preserve" font-family="Apercu,Apercu" font-size="10.0" fill="#999999" transform="matrix(1.00, 0.00, -0.00, -1.00, 963.5, 11.2)">p</text><text xml:space="preserve" font-family="Apercu,Apercu" font-size="10.0" fill="#999999" transform="matrix(1.00, 0.00, -0.00, -1.00, 969.5, 11.2)">p</text><text xml:space="preserve" font-family="Apercu,Apercu" font-size="10.0" fill="#999999" transform="matrix(1.00, 0.00, -0.00, -1.00, 975.5, 11.2)"> </text><text xml:space="preserve" font-family="Apercu,Apercu" font-size="10.0" fill="#999999" transform="matrix(1.00, 0.00, -0.00, -1.00, 978.2, 11.2)">B</text><text xml:space="preserve" font-family="Apercu,Apercu" font-size="10.0" fill="#999999" transform="matrix(1.00, 0.00, -0.00, -1.00, 984.4, 11.2)">u</text><text xml:space="preserve" font-family="Apercu,Apercu" font-size="10.0" fill="#999999" transform="matrix(1.00, 0.00, -0.00, -1.00, 990.0, 11.2)">s</text><text xml:space="preserve" font-family="Apercu,Apercu" font-size="10.0" fill="#999999" transform="matrix(1.00, 0.00, -0.00, -1.00, 994.4, 11.2)">i</text><text xml:space="preserve" font-family="Apercu,Apercu" font-size="10.0" fill="#999999" transform="matrix(1.00, 0.00, -0.00, -1.00, 996.8, 11.2)">n</text><text xml:space="preserve" font-family="Apercu,Apercu" font-size="10.0" fill="#999999" transform="matrix(1.00, 0.00, -0.00, -1.00, 1002.4, 11.2)">e</text><text xml:space="preserve" font-family="Apercu,Apercu" font-size="10.0" fill="#999999" transform="matrix(1.00, 0.00, -0.00, -1.00, 1007.9, 11.2)">s</text><text xml:space="preserve" font-family="Apercu,Apercu" font-size="10.0" fill="#999999" transform="matrix(1.00, 0.00, -0.00, -1.00, 1012.4, 11.2)">s</text></g></g></g><text xml:space="preserve" font-family="Apercu,Apercu" font-size="44.0" fill="#444444" transform="matrix(1.00, 0.00, -0.00, -1.00, 769.9, 437.9)">a</text><text xml:space="preserve" font-family="Apercu,Apercu" font-size="44.0" fill="#444444" transform="matrix(1.00, 0.00, -0.00, -1.00, 792.6, 437.9)"> </text><text xml:space="preserve" font-family="Apercu,Apercu" font-size="44.0" fill="#444444" transform="matrix(1.00, 0.00, -0.00, -1.00, 804.4, 437.9)">l</text><text xml:space="preserve" font-family="Apercu,Apercu" font-size="44.0" fill="#444444" transform="matrix(1.00, 0.00, -0.00, -1.00, 814.6, 437.9)">i</text><text xml:space="preserve" font-family="Apercu,Apercu" font-size="44.0" fill="#444444" transform="matrix(1.00, 0.00, -0.00, -1.00, 826.4, 437.9)">t</text><text xml:space="preserve" font-family="Apercu,Apercu" font-size="44.0" fill="#444444" transform="matrix(1.00, 0.00, -0.00, -1.00, 843.4, 437.9)">t</text><text xml:space="preserve" font-family="Apercu,Apercu" font-size="44.0" fill="#444444" transform="matrix(1.00, 0.00, -0.00, -1.00, 860.0, 437.9)">l</text><text xml:space="preserve" font-family="Apercu,Apercu" font-size="44.0" fill="#444444" transform="matrix(1.00, 0.00, -0.00, -1.00, 871.0, 437.9)">e</text><text xml:space="preserve" font-family="Apercu,Apercu" font-size="44.0" fill="#444444" transform="matrix(1.00, 0.00, -0.00, -1.00, 895.6, 437.9)"> </text><text xml:space="preserve" font-family="Apercu,Apercu" font-size="44.0" fill="#444444" transform="matrix(1.00, 0.00, -0.00, -1.00, 907.4, 437.9)">m</text><text xml:space="preserve" font-family="Apercu,Apercu" font-size="44.0" fill="#444444" transform="matrix(1.00, 0.00, -0.00, -1.00, 944.8, 437.9)">o</text><text xml:space="preserve" font-family="Apercu,Apercu" font-size="44.0" fill="#444444" transform="matrix(1.00, 0.00, -0.00, -1.00, 970.0, 437.9)">r</text><text xml:space="preserve" font-family="Apercu,Apercu" font-size="44.0" fill="#444444" transform="matrix(1.00, 0.00, -0.00, -1.00, 987.3, 437.9)">e</text><text xml:space="preserve" font-family="Apercu,Apercu" font-size="44.0" fill="#444444" transform="matrix(1.00, 0.00, -0.00, -1.00, 1011.9, 437.9)"> </text><text xml:space="preserve" font-family="Apercu,Apercu" font-size="44.0" fill="#444444" transform="matrix(1.00, 0.00, -0.00, -1.00, 1023.7, 437.9)">a</text><text xml:space="preserve" font-family="Apercu,Apercu" font-size="44.0" fill="#444444" transform="matrix(1.00, 0.00, -0.00, -1.00, 1046.9, 437.9)">c</text><text xml:space="preserve" font-family="Apercu,Apercu" font-size="44.0" fill="#444444" transform="matrix(1.00, 0.00, -0.00, -1.00, 1071.2, 437.9)">t</text><text xml:space="preserve" font-family="Apercu,Apercu" font-size="44.0" fill="#444444" transform="matrix(1.00, 0.00, -0.00, -1.00, 1087.8, 437.9)">i</text><text xml:space="preserve" font-family="Apercu,Apercu" font-size="44.0" fill="#444444" transform="matrix(1.00, 0.00, -0.00, -1.00, 1099.0, 437.9)">o</text><text xml:space="preserve" font-family="Apercu,Apercu" font-size="44.0" fill="#444444" transform="matrix(1.00, 0.00, -0.00, -1.00, 1124.8, 437.9)">n</text><text xml:space="preserve" font-family="Apercu,Apercu" font-size="44.0" fill="#444444" transform="matrix(1.00, 0.00, -0.00, -1.00, 1150.1, 437.9)"> </text><text xml:space="preserve" font-family="Apercu-Bold,Apercu" font-weight="bold" font-size="88.0" fill="#FF4400" transform="matrix(1.00, 0.00, -0.00, -1.00, 465.7, 509.2)">A</text><text xml:space="preserve" font-family="Apercu-Bold,Apercu" font-weight="bold" font-size="88.0" fill="#FF4400" transform="matrix(1.00, 0.00, -0.00, -1.00, 519.8, 509.2)"> </text><text xml:space="preserve" font-family="Apercu-Bold,Apercu" font-weight="bold" font-size="88.0" fill="#FF4400" transform="matrix(1.00, 0.00, -0.00, -1.00, 541.6, 509.2)">l</text><text xml:space="preserve" font-family="Apercu-Bold,Apercu" font-weight="bold" font-size="88.0" fill="#FF4400" transform="matrix(1.00, 0.00, -0.00, -1.00, 564.9, 509.2)">i</text><text xml:space="preserve" font-family="Apercu-Bold,Apercu" font-weight="bold" font-size="88.0" fill="#FF4400" transform="matrix(1.00, 0.00, -0.00, -1.00, 588.7, 509.2)">t</text><text xml:space="preserve" font-family="Apercu-Bold,Apercu" font-weight="bold" font-size="88.0" fill="#FF4400" transform="matrix(1.00, 0.00, -0.00, -1.00, 624.6, 509.2)">t</text><text xml:space="preserve" font-family="Apercu-Bold,Apercu" font-weight="bold" font-size="88.0" fill="#FF4400" transform="matrix(1.00, 0.00, -0.00, -1.00, 659.1, 509.2)">l</text><text xml:space="preserve" font-family="Apercu-Bold,Apercu" font-weight="bold" font-size="88.0" fill="#FF4400" transform="matrix(1.00, 0.00, -0.00, -1.00, 683.2, 509.2)">e</text><text xml:space="preserve" font-family="Apercu-Bold,Apercu" font-weight="bold" font-size="88.0" fill="#FF4400" transform="matrix(1.00, 0.00, -0.00, -1.00, 732.1, 509.2)"> </text><text xml:space="preserve" font-family="Apercu-Bold,Apercu" font-weight="bold" font-size="88.0" fill="#FF4400" transform="matrix(1.00, 0.00, -0.00, -1.00, 753.9, 509.2)">l</text><text xml:space="preserve" font-family="Apercu-Bold,Apercu" font-weight="bold" font-size="88.0" fill="#FF4400" transform="matrix(1.00, 0.00, -0.00, -1.00, 778.1, 509.2)">e</text><text xml:space="preserve" font-family="Apercu-Bold,Apercu" font-weight="bold" font-size="88.0" fill="#FF4400" transform="matrix(1.00, 0.00, -0.00, -1.00, 827.0, 509.2)">s</text><text xml:space="preserve" font-family="Apercu-Bold,Apercu" font-weight="bold" font-size="88.0" fill="#FF4400" transform="matrix(1.00, 0.00, -0.00, -1.00, 866.7, 509.2)">s</text><text xml:space="preserve" font-family="Apercu-Bold,Apercu" font-weight="bold" font-size="88.0" fill="#FF4400" transform="matrix(1.00, 0.00, -0.00, -1.00, 906.8, 509.2)"> </text><text xml:space="preserve" font-family="Apercu-Bold,Apercu" font-weight="bold" font-size="88.0" fill="#FF4400" transform="matrix(1.00, 0.00, -0.00, -1.00, 928.6, 509.2)">c</text><text xml:space="preserve" font-family="Apercu-Bold,Apercu" font-weight="bold" font-size="88.0" fill="#FF4400" transform="matrix(1.00, 0.00, -0.00, -1.00, 977.8, 509.2)">o</text><text xml:space="preserve" font-family="Apercu-Bold,Apercu" font-weight="bold" font-size="88.0" fill="#FF4400" transform="matrix(1.00, 0.00, -0.00, -1.00, 1029.5, 509.2)">n</text><text xml:space="preserve" font-family="Apercu-Bold,Apercu" font-weight="bold" font-size="88.0" fill="#FF4400" transform="matrix(1.00, 0.00, -0.00, -1.00, 1081.1, 509.2)">v</text><text xml:space="preserve" font-family="Apercu-Bold,Apercu" font-weight="bold" font-size="88.0" fill="#FF4400" transform="matrix(1.00, 0.00, -0.00, -1.00, 1121.2, 509.2)">e</text><text xml:space="preserve" font-family="Apercu-Bold,Apercu" font-weight="bold" font-size="88.0" fill="#FF4400" transform="matrix(1.00, 0.00, -0.00, -1.00, 1169.7, 509.2)">r</text><text xml:space="preserve" font-family="Apercu-Bold,Apercu" font-weight="bold" font-size="88.0" fill="#FF4400" transform="matrix(1.00, 0.00, -0.00, -1.00, 1206.9, 509.2)">s</text><text xml:space="preserve" font-family="Apercu-Bold,Apercu" font-weight="bold" font-size="88.0" fill="#FF4400" transform="matrix(1.00, 0.00, -0.00, -1.00, 1247.0, 509.2)">a</text><text xml:space="preserve" font-family="Apercu-Bold,Apercu" font-weight="bold" font-size="88.0" fill="#FF4400" transform="matrix(1.00, 0.00, -0.00, -1.00, 1292.8, 509.2)">t</text><text xml:space="preserve" font-family="Apercu-Bold,Apercu" font-weight="bold" font-size="88.0" fill="#FF4400" transform="matrix(1.00, 0.00, -0.00, -1.00, 1327.3, 509.2)">i</text><text xml:space="preserve" font-family="Apercu-Bold,Apercu" font-weight="bold" font-size="88.0" fill="#FF4400" transform="matrix(1.00, 0.00, -0.00, -1.00, 1350.9, 509.2)">o</text><text xml:space="preserve" font-family="Apercu-Bold,Apercu" font-weight="bold" font-size="88.0" fill="#FF4400" transform="matrix(1.00, 0.00, -0.00, -1.00, 1402.6, 509.2)">n</text></g></svg>