<?xml version="1.0" encoding="UTF-8" standalone="no"?><svg xmlns="http://www.w3.org/2000/svg" xmlns:xlink="http://www.w3.org/1999/xlink" clip-rule="evenodd" stroke-miterlimit="10" viewBox="0 0 1920 1080"><desc>SVG generated by Keynote</desc><defs></defs><g transform="matrix(1.00, 0.00, -0.00, -1.00, 0.0, 1080.0)"><path d="M 0.0 1080.0 L 1920.0 1080.0 L 1920.0 0.0 L 0.0 0.0 Z M 0.0 1080.0 " fill="#FFFFFF"></path><text xml:space="preserve" font-family="Apercu,Apercu" font-size="10.0" fill="#878787" transform="matrix(1.00, 0.00, -0.00, -1.00, 903.0, 11.2)">©</text><text xml:space="preserve" font-family="Apercu,Apercu" font-size="10.0" fill="#878787" transform="matrix(1.00, 0.00, -0.00, -1.00, 912.0, 11.2)"> </text><text xml:space="preserve" font-family="Apercu,Apercu" font-size="10.0" fill="#878787" transform="matrix(1.00, 0.00, -0.00, -1.00, 914.6, 11.2)">2</text><text xml:space="preserve" font-family="Apercu,Apercu" font-size="10.0" fill="#878787" transform="matrix(1.00, 0.00, -0.00, -1.00, 920.2, 11.2)">0</text><text xml:space="preserve" font-family="Apercu,Apercu" font-size="10.0" fill="#878787" transform="matrix(1.00, 0.00, -0.00, -1.00, 926.2, 11.2)">1</text><text xml:space="preserve" font-family="Apercu,Apercu" font-size="10.0" fill="#878787" transform="matrix(1.00, 0.00, -0.00, -1.00, 929.7, 11.2)">4</text><text xml:space="preserve" font-family="Apercu,Apercu" font-size="10.0" fill="#878787" transform="matrix(1.00, 0.00, -0.00, -1.00, 935.7, 11.2)"> </text><text xml:space="preserve" font-family="Apercu,Apercu" font-size="10.0" fill="#878787" transform="matrix(1.00, 0.00, -0.00, -1.00, 938.3, 11.2)">T</text><text xml:space="preserve" font-family="Apercu,Apercu" font-size="10.0" fill="#878787" transform="matrix(1.00, 0.00, -0.00, -1.00, 943.6, 11.2)">h</text><text xml:space="preserve" font-family="Apercu,Apercu" font-size="10.0" fill="#878787" transform="matrix(1.00, 0.00, -0.00, -1.00, 949.3, 11.2)">e</text><text xml:space="preserve" font-family="Apercu,Apercu" font-size="10.0" fill="#878787" transform="matrix(1.00, 0.00, -0.00, -1.00, 954.9, 11.2)"> </text><text xml:space="preserve" font-family="Apercu,Apercu" font-size="10.0" fill="#878787" transform="matrix(1.00, 0.00, -0.00, -1.00, 957.6, 11.2)">A</text><text xml:space="preserve" font-family="Apercu,Apercu" font-size="10.0" fill="#878787" transform="matrix(1.00, 0.00, -0.00, -1.00, 963.5, 11.2)">p</text><text xml:space="preserve" font-family="Apercu,Apercu" font-size="10.0" fill="#878787" transform="matrix(1.00, 0.00, -0.00, -1.00, 969.5, 11.2)">p</text><text xml:space="preserve" font-family="Apercu,Apercu" font-size="10.0" fill="#878787" transform="matrix(1.00, 0.00, -0.00, -1.00, 975.5, 11.2)"> </text><text xml:space="preserve" font-family="Apercu,Apercu" font-size="10.0" fill="#878787" transform="matrix(1.00, 0.00, -0.00, -1.00, 978.2, 11.2)">B</text><text xml:space="preserve" font-family="Apercu,Apercu" font-size="10.0" fill="#878787" transform="matrix(1.00, 0.00, -0.00, -1.00, 984.4, 11.2)">u</text><text xml:space="preserve" font-family="Apercu,Apercu" font-size="10.0" fill="#878787" transform="matrix(1.00, 0.00, -0.00, -1.00, 990.0, 11.2)">s</text><text xml:space="preserve" font-family="Apercu,Apercu" font-size="10.0" fill="#878787" transform="matrix(1.00, 0.00, -0.00, -1.00, 994.4, 11.2)">i</text><text xml:space="preserve" font-family="Apercu,Apercu" font-size="10.0" fill="#878787" transform="matrix(1.00, 0.00, -0.00, -1.00, 996.8, 11.2)">n</text><text xml:space="preserve" font-family="Apercu,Apercu" font-size="10.0" fill="#878787" transform="matrix(1.00, 0.00, -0.00, -1.00, 1002.4, 11.2)">e</text><text xml:space="preserve" font-family="Apercu,Apercu" font-size="10.0" fill="#878787" transform="matrix(1.00, 0.00, -0.00, -1.00, 1007.9, 11.2)">s</text><text xml:space="preserve" font-family="Apercu,Apercu" font-size="10.0" fill="#878787" transform="matrix(1.00, 0.00, -0.00, -1.00, 1012.4, 11.2)">s</text><text xml:space="preserve" font-family="Apercu-Bold,Apercu" font-weight="bold" font-size="66.0" fill="#FF4400" transform="matrix(1.00, 0.00, -0.00, -1.00, 832.9, 953.7)">V</text><text xml:space="preserve" font-family="Apercu-Bold,Apercu" font-weight="bold" font-size="66.0" fill="#FF4400" transform="matrix(1.00, 0.00, -0.00, -1.00, 872.8, 953.7)">:</text><text xml:space="preserve" font-family="Apercu-Bold,Apercu" font-weight="bold" font-size="66.0" fill="#FF4400" transform="matrix(1.00, 0.00, -0.00, -1.00, 895.1, 953.7)"> </text><text xml:space="preserve" font-family="Apercu-Bold,Apercu" font-weight="bold" font-size="66.0" fill="#FF4400" transform="matrix(1.00, 0.00, -0.00, -1.00, 911.5, 953.7)">V</text><text xml:space="preserve" font-family="Apercu-Bold,Apercu" font-weight="bold" font-size="66.0" fill="#FF4400" transform="matrix(1.00, 0.00, -0.00, -1.00, 952.0, 953.7)">i</text><text xml:space="preserve" font-family="Apercu-Bold,Apercu" font-weight="bold" font-size="66.0" fill="#FF4400" transform="matrix(1.00, 0.00, -0.00, -1.00, 969.7, 953.7)">e</text><text xml:space="preserve" font-family="Apercu-Bold,Apercu" font-weight="bold" font-size="66.0" fill="#FF4400" transform="matrix(1.00, 0.00, -0.00, -1.00, 1006.4, 953.7)">w</text><text xml:space="preserve" font-family="Apercu-Bold,Apercu" font-weight="bold" font-size="66.0" fill="#FF4400" transform="matrix(1.00, 0.00, -0.00, -1.00, 1057.0, 953.7)">s</text><g><clipPath id="clip0x6000008b02c0"><path d="M 84.0 807.6 L 1836.0 807.6 L 1836.0 150.3 L 84.0 150.3 Z M 84.0 807.6 "></path></clipPath><g clip-path="url(#clip0x6000008b02c0)"><path d="M 84.0 807.6 L 1836.0 807.6 L 1836.0 146.3 L 84.0 146.3 Z M 84.0 807.6 " fill="#DCDDE0"></path></g></g><text xml:space="preserve" font-family="Monaco,Monaco" font-size="33.0" fill="#444444" transform="matrix(1.00, 0.00, -0.00, -1.00, 84.0, 774.6)">A</text><text xml:space="preserve" font-family="Monaco,Monaco" font-size="33.0" fill="#444444" transform="matrix(1.00, 0.00, -0.00, -1.00, 103.8, 774.6)">p</text><text xml:space="preserve" font-family="Monaco,Monaco" font-size="33.0" fill="#444444" transform="matrix(1.00, 0.00, -0.00, -1.00, 123.6, 774.6)">p</text><text xml:space="preserve" font-family="Monaco,Monaco" font-size="33.0" fill="#444444" transform="matrix(1.00, 0.00, -0.00, -1.00, 143.4, 774.6)">.</text><text xml:space="preserve" font-family="Monaco,Monaco" font-size="33.0" fill="#444444" transform="matrix(1.00, 0.00, -0.00, -1.00, 163.2, 774.6)">C</text><text xml:space="preserve" font-family="Monaco,Monaco" font-size="33.0" fill="#444444" transform="matrix(1.00, 0.00, -0.00, -1.00, 183.0, 774.6)">o</text><text xml:space="preserve" font-family="Monaco,Monaco" font-size="33.0" fill="#444444" transform="matrix(1.00, 0.00, -0.00, -1.00, 202.8, 774.6)">l</text><text xml:space="preserve" font-family="Monaco,Monaco" font-size="33.0" fill="#444444" transform="matrix(1.00, 0.00, -0.00, -1.00, 222.6, 774.6)">l</text><text xml:space="preserve" font-family="Monaco,Monaco" font-size="33.0" fill="#444444" transform="matrix(1.00, 0.00, -0.00, -1.00, 242.5, 774.6)">a</text><text xml:space="preserve" font-family="Monaco,Monaco" font-size="33.0" fill="#444444" transform="matrix(1.00, 0.00, -0.00, -1.00, 262.3, 774.6)">p</text><text xml:space="preserve" font-family="Monaco,Monaco" font-size="33.0" fill="#444444" transform="matrix(1.00, 0.00, -0.00, -1.00, 282.1, 774.6)">s</text><text xml:space="preserve" font-family="Monaco,Monaco" font-size="33.0" fill="#444444" transform="matrix(1.00, 0.00, -0.00, -1.00, 301.9, 774.6)">a</text><text xml:space="preserve" font-family="Monaco,Monaco" font-size="33.0" fill="#444444" transform="matrix(1.00, 0.00, -0.00, -1.00, 321.7, 774.6)">b</text><text xml:space="preserve" font-family="Monaco,Monaco" font-size="33.0" fill="#444444" transform="matrix(1.00, 0.00, -0.00, -1.00, 341.5, 774.6)">l</text><text xml:space="preserve" font-family="Monaco,Monaco" font-size="33.0" fill="#444444" transform="matrix(1.00, 0.00, -0.00, -1.00, 361.3, 774.6)">e</text><text xml:space="preserve" font-family="Monaco,Monaco" font-size="33.0" fill="#444444" transform="matrix(1.00, 0.00, -0.00, -1.00, 381.1, 774.6)">M</text><text xml:space="preserve" font-family="Monaco,Monaco" font-size="33.0" fill="#444444" transform="matrix(1.00, 0.00, -0.00, -1.00, 400.9, 774.6)">e</text><text xml:space="preserve" font-family="Monaco,Monaco" font-size="33.0" fill="#444444" transform="matrix(1.00, 0.00, -0.00, -1.00, 420.7, 774.6)">n</text><text xml:space="preserve" font-family="Monaco,Monaco" font-size="33.0" fill="#444444" transform="matrix(1.00, 0.00, -0.00, -1.00, 440.5, 774.6)">u</text><text xml:space="preserve" font-family="Monaco,Monaco" font-size="33.0" fill="#444444" transform="matrix(1.00, 0.00, -0.00, -1.00, 460.3, 774.6)">V</text><text xml:space="preserve" font-family="Monaco,Monaco" font-size="33.0" fill="#444444" transform="matrix(1.00, 0.00, -0.00, -1.00, 480.1, 774.6)">i</text><text xml:space="preserve" font-family="Monaco,Monaco" font-size="33.0" fill="#444444" transform="matrix(1.00, 0.00, -0.00, -1.00, 499.9, 774.6)">e</text><text xml:space="preserve" font-family="Monaco,Monaco" font-size="33.0" fill="#444444" transform="matrix(1.00, 0.00, -0.00, -1.00, 519.7, 774.6)">w</text><text xml:space="preserve" font-family="Monaco,Monaco" font-size="33.0" fill="#444444" transform="matrix(1.00, 0.00, -0.00, -1.00, 539.6, 774.6)"> </text><text xml:space="preserve" font-family="Monaco,Monaco" font-size="33.0" fill="#444444" transform="matrix(1.00, 0.00, -0.00, -1.00, 559.4, 774.6)">=</text><text xml:space="preserve" font-family="Monaco,Monaco" font-size="33.0" fill="#444444" transform="matrix(1.00, 0.00, -0.00, -1.00, 579.2, 774.6)"> </text><text xml:space="preserve" font-family="Monaco,Monaco" font-size="33.0" fill="#444444" transform="matrix(1.00, 0.00, -0.00, -1.00, 599.0, 774.6)">E</text><text xml:space="preserve" font-family="Monaco,Monaco" font-size="33.0" fill="#444444" transform="matrix(1.00, 0.00, -0.00, -1.00, 618.8, 774.6)">m</text><text xml:space="preserve" font-family="Monaco,Monaco" font-size="33.0" fill="#444444" transform="matrix(1.00, 0.00, -0.00, -1.00, 638.6, 774.6)">b</text><text xml:space="preserve" font-family="Monaco,Monaco" font-size="33.0" fill="#444444" transform="matrix(1.00, 0.00, -0.00, -1.00, 658.4, 774.6)">e</text><text xml:space="preserve" font-family="Monaco,Monaco" font-size="33.0" fill="#444444" transform="matrix(1.00, 0.00, -0.00, -1.00, 678.2, 774.6)">r</text><text xml:space="preserve" font-family="Monaco,Monaco" font-size="33.0" fill="#444444" transform="matrix(1.00, 0.00, -0.00, -1.00, 698.0, 774.6)">.</text><text xml:space="preserve" font-family="Monaco,Monaco" font-size="33.0" fill="#444444" transform="matrix(1.00, 0.00, -0.00, -1.00, 717.8, 774.6)">V</text><text xml:space="preserve" font-family="Monaco,Monaco" font-size="33.0" fill="#444444" transform="matrix(1.00, 0.00, -0.00, -1.00, 737.6, 774.6)">i</text><text xml:space="preserve" font-family="Monaco,Monaco" font-size="33.0" fill="#444444" transform="matrix(1.00, 0.00, -0.00, -1.00, 757.4, 774.6)">e</text><text xml:space="preserve" font-family="Monaco,Monaco" font-size="33.0" fill="#444444" transform="matrix(1.00, 0.00, -0.00, -1.00, 777.2, 774.6)">w</text><text xml:space="preserve" font-family="Monaco,Monaco" font-size="33.0" fill="#444444" transform="matrix(1.00, 0.00, -0.00, -1.00, 797.0, 774.6)">.</text><text xml:space="preserve" font-family="Monaco,Monaco" font-size="33.0" fill="#444444" transform="matrix(1.00, 0.00, -0.00, -1.00, 816.8, 774.6)">e</text><text xml:space="preserve" font-family="Monaco,Monaco" font-size="33.0" fill="#444444" transform="matrix(1.00, 0.00, -0.00, -1.00, 836.6, 774.6)">x</text><text xml:space="preserve" font-family="Monaco,Monaco" font-size="33.0" fill="#444444" transform="matrix(1.00, 0.00, -0.00, -1.00, 856.5, 774.6)">t</text><text xml:space="preserve" font-family="Monaco,Monaco" font-size="33.0" fill="#444444" transform="matrix(1.00, 0.00, -0.00, -1.00, 876.3, 774.6)">e</text><text xml:space="preserve" font-family="Monaco,Monaco" font-size="33.0" fill="#444444" transform="matrix(1.00, 0.00, -0.00, -1.00, 896.1, 774.6)">n</text><text xml:space="preserve" font-family="Monaco,Monaco" font-size="33.0" fill="#444444" transform="matrix(1.00, 0.00, -0.00, -1.00, 915.9, 774.6)">d</text><text xml:space="preserve" font-family="Monaco,Monaco" font-size="33.0" fill="#444444" transform="matrix(1.00, 0.00, -0.00, -1.00, 935.7, 774.6)">(</text><text xml:space="preserve" font-family="Monaco,Monaco" font-size="33.0" fill="#444444" transform="matrix(1.00, 0.00, -0.00, -1.00, 955.5, 774.6)">{</text><text xml:space="preserve" font-family="Monaco,Monaco" font-size="33.0" fill="#444444" transform="matrix(1.00, 0.00, -0.00, -1.00, 84.0, 730.6)"> </text><text xml:space="preserve" font-family="Monaco,Monaco" font-size="33.0" fill="#444444" transform="matrix(1.00, 0.00, -0.00, -1.00, 103.8, 730.6)"> </text><text xml:space="preserve" font-family="Monaco,Monaco" font-size="33.0" fill="#444444" transform="matrix(1.00, 0.00, -0.00, -1.00, 123.6, 730.6)">m</text><text xml:space="preserve" font-family="Monaco,Monaco" font-size="33.0" fill="#444444" transform="matrix(1.00, 0.00, -0.00, -1.00, 143.4, 730.6)">o</text><text xml:space="preserve" font-family="Monaco,Monaco" font-size="33.0" fill="#444444" transform="matrix(1.00, 0.00, -0.00, -1.00, 163.2, 730.6)">u</text><text xml:space="preserve" font-family="Monaco,Monaco" font-size="33.0" fill="#444444" transform="matrix(1.00, 0.00, -0.00, -1.00, 183.0, 730.6)">s</text><text xml:space="preserve" font-family="Monaco,Monaco" font-size="33.0" fill="#444444" transform="matrix(1.00, 0.00, -0.00, -1.00, 202.8, 730.6)">e</text><text xml:space="preserve" font-family="Monaco,Monaco" font-size="33.0" fill="#444444" transform="matrix(1.00, 0.00, -0.00, -1.00, 222.6, 730.6)">e</text><text xml:space="preserve" font-family="Monaco,Monaco" font-size="33.0" fill="#444444" transform="matrix(1.00, 0.00, -0.00, -1.00, 242.5, 730.6)">n</text><text xml:space="preserve" font-family="Monaco,Monaco" font-size="33.0" fill="#444444" transform="matrix(1.00, 0.00, -0.00, -1.00, 262.3, 730.6)">t</text><text xml:space="preserve" font-family="Monaco,Monaco" font-size="33.0" fill="#444444" transform="matrix(1.00, 0.00, -0.00, -1.00, 282.1, 730.6)">e</text><text xml:space="preserve" font-family="Monaco,Monaco" font-size="33.0" fill="#444444" transform="matrix(1.00, 0.00, -0.00, -1.00, 301.9, 730.6)">r</text><text xml:space="preserve" font-family="Monaco,Monaco" font-size="33.0" fill="#444444" transform="matrix(1.00, 0.00, -0.00, -1.00, 321.7, 730.6)">:</text><text xml:space="preserve" font-family="Monaco,Monaco" font-size="33.0" fill="#444444" transform="matrix(1.00, 0.00, -0.00, -1.00, 341.5, 730.6)"> </text><text xml:space="preserve" font-family="Monaco,Monaco" font-size="33.0" fill="#444444" transform="matrix(1.00, 0.00, -0.00, -1.00, 361.3, 730.6)">f</text><text xml:space="preserve" font-family="Monaco,Monaco" font-size="33.0" fill="#444444" transform="matrix(1.00, 0.00, -0.00, -1.00, 381.1, 730.6)">u</text><text xml:space="preserve" font-family="Monaco,Monaco" font-size="33.0" fill="#444444" transform="matrix(1.00, 0.00, -0.00, -1.00, 400.9, 730.6)">n</text><text xml:space="preserve" font-family="Monaco,Monaco" font-size="33.0" fill="#444444" transform="matrix(1.00, 0.00, -0.00, -1.00, 420.7, 730.6)">c</text><text xml:space="preserve" font-family="Monaco,Monaco" font-size="33.0" fill="#444444" transform="matrix(1.00, 0.00, -0.00, -1.00, 440.5, 730.6)">t</text><text xml:space="preserve" font-family="Monaco,Monaco" font-size="33.0" fill="#444444" transform="matrix(1.00, 0.00, -0.00, -1.00, 460.3, 730.6)">i</text><text xml:space="preserve" font-family="Monaco,Monaco" font-size="33.0" fill="#444444" transform="matrix(1.00, 0.00, -0.00, -1.00, 480.1, 730.6)">o</text><text xml:space="preserve" font-family="Monaco,Monaco" font-size="33.0" fill="#444444" transform="matrix(1.00, 0.00, -0.00, -1.00, 499.9, 730.6)">n</text><text xml:space="preserve" font-family="Monaco,Monaco" font-size="33.0" fill="#444444" transform="matrix(1.00, 0.00, -0.00, -1.00, 519.7, 730.6)">(</text><text xml:space="preserve" font-family="Monaco,Monaco" font-size="33.0" fill="#444444" transform="matrix(1.00, 0.00, -0.00, -1.00, 539.6, 730.6)">)</text><text xml:space="preserve" font-family="Monaco,Monaco" font-size="33.0" fill="#444444" transform="matrix(1.00, 0.00, -0.00, -1.00, 559.4, 730.6)">{</text><text xml:space="preserve" font-family="Monaco,Monaco" font-size="33.0" fill="#444444" transform="matrix(1.00, 0.00, -0.00, -1.00, 84.0, 686.6)"> </text><text xml:space="preserve" font-family="Monaco,Monaco" font-size="33.0" fill="#444444" transform="matrix(1.00, 0.00, -0.00, -1.00, 103.8, 686.6)"> </text><text xml:space="preserve" font-family="Monaco,Monaco" font-size="33.0" fill="#444444" transform="matrix(1.00, 0.00, -0.00, -1.00, 123.6, 686.6)"> </text><text xml:space="preserve" font-family="Monaco,Monaco" font-size="33.0" fill="#444444" transform="matrix(1.00, 0.00, -0.00, -1.00, 143.4, 686.6)"> </text><text xml:space="preserve" font-family="Monaco,Monaco" font-size="33.0" fill="#444444" transform="matrix(1.00, 0.00, -0.00, -1.00, 163.2, 686.6)">t</text><text xml:space="preserve" font-family="Monaco,Monaco" font-size="33.0" fill="#444444" transform="matrix(1.00, 0.00, -0.00, -1.00, 183.0, 686.6)">h</text><text xml:space="preserve" font-family="Monaco,Monaco" font-size="33.0" fill="#444444" transform="matrix(1.00, 0.00, -0.00, -1.00, 202.8, 686.6)">i</text><text xml:space="preserve" font-family="Monaco,Monaco" font-size="33.0" fill="#444444" transform="matrix(1.00, 0.00, -0.00, -1.00, 222.6, 686.6)">s</text><text xml:space="preserve" font-family="Monaco,Monaco" font-size="33.0" fill="#444444" transform="matrix(1.00, 0.00, -0.00, -1.00, 242.5, 686.6)">.</text><text xml:space="preserve" font-family="Monaco,Monaco" font-size="33.0" fill="#444444" transform="matrix(1.00, 0.00, -0.00, -1.00, 262.3, 686.6)">a</text><text xml:space="preserve" font-family="Monaco,Monaco" font-size="33.0" fill="#444444" transform="matrix(1.00, 0.00, -0.00, -1.00, 282.1, 686.6)">b</text><text xml:space="preserve" font-family="Monaco,Monaco" font-size="33.0" fill="#444444" transform="matrix(1.00, 0.00, -0.00, -1.00, 301.9, 686.6)">o</text><text xml:space="preserve" font-family="Monaco,Monaco" font-size="33.0" fill="#444444" transform="matrix(1.00, 0.00, -0.00, -1.00, 321.7, 686.6)">r</text><text xml:space="preserve" font-family="Monaco,Monaco" font-size="33.0" fill="#444444" transform="matrix(1.00, 0.00, -0.00, -1.00, 341.5, 686.6)">t</text><text xml:space="preserve" font-family="Monaco,Monaco" font-size="33.0" fill="#444444" transform="matrix(1.00, 0.00, -0.00, -1.00, 361.3, 686.6)">A</text><text xml:space="preserve" font-family="Monaco,Monaco" font-size="33.0" fill="#444444" transform="matrix(1.00, 0.00, -0.00, -1.00, 381.1, 686.6)">n</text><text xml:space="preserve" font-family="Monaco,Monaco" font-size="33.0" fill="#444444" transform="matrix(1.00, 0.00, -0.00, -1.00, 400.9, 686.6)">i</text><text xml:space="preserve" font-family="Monaco,Monaco" font-size="33.0" fill="#444444" transform="matrix(1.00, 0.00, -0.00, -1.00, 420.7, 686.6)">m</text><text xml:space="preserve" font-family="Monaco,Monaco" font-size="33.0" fill="#444444" transform="matrix(1.00, 0.00, -0.00, -1.00, 440.5, 686.6)">a</text><text xml:space="preserve" font-family="Monaco,Monaco" font-size="33.0" fill="#444444" transform="matrix(1.00, 0.00, -0.00, -1.00, 460.3, 686.6)">t</text><text xml:space="preserve" font-family="Monaco,Monaco" font-size="33.0" fill="#444444" transform="matrix(1.00, 0.00, -0.00, -1.00, 480.1, 686.6)">i</text><text xml:space="preserve" font-family="Monaco,Monaco" font-size="33.0" fill="#444444" transform="matrix(1.00, 0.00, -0.00, -1.00, 499.9, 686.6)">o</text><text xml:space="preserve" font-family="Monaco,Monaco" font-size="33.0" fill="#444444" transform="matrix(1.00, 0.00, -0.00, -1.00, 519.7, 686.6)">n</text><text xml:space="preserve" font-family="Monaco,Monaco" font-size="33.0" fill="#444444" transform="matrix(1.00, 0.00, -0.00, -1.00, 539.6, 686.6)">(</text><text xml:space="preserve" font-family="Monaco,Monaco" font-size="33.0" fill="#444444" transform="matrix(1.00, 0.00, -0.00, -1.00, 559.4, 686.6)">)</text><text xml:space="preserve" font-family="Monaco,Monaco" font-size="33.0" fill="#444444" transform="matrix(1.00, 0.00, -0.00, -1.00, 579.2, 686.6)">.</text><text xml:space="preserve" font-family="Monaco,Monaco" font-size="33.0" fill="#444444" transform="matrix(1.00, 0.00, -0.00, -1.00, 599.0, 686.6)">t</text><text xml:space="preserve" font-family="Monaco,Monaco" font-size="33.0" fill="#444444" transform="matrix(1.00, 0.00, -0.00, -1.00, 618.8, 686.6)">h</text><text xml:space="preserve" font-family="Monaco,Monaco" font-size="33.0" fill="#444444" transform="matrix(1.00, 0.00, -0.00, -1.00, 638.6, 686.6)">e</text><text xml:space="preserve" font-family="Monaco,Monaco" font-size="33.0" fill="#444444" transform="matrix(1.00, 0.00, -0.00, -1.00, 658.4, 686.6)">n</text><text xml:space="preserve" font-family="Monaco,Monaco" font-size="33.0" fill="#444444" transform="matrix(1.00, 0.00, -0.00, -1.00, 678.2, 686.6)">(</text><text xml:space="preserve" font-family="Monaco,Monaco" font-size="33.0" fill="#444444" transform="matrix(1.00, 0.00, -0.00, -1.00, 698.0, 686.6)">f</text><text xml:space="preserve" font-family="Monaco,Monaco" font-size="33.0" fill="#444444" transform="matrix(1.00, 0.00, -0.00, -1.00, 717.8, 686.6)">u</text><text xml:space="preserve" font-family="Monaco,Monaco" font-size="33.0" fill="#444444" transform="matrix(1.00, 0.00, -0.00, -1.00, 737.6, 686.6)">n</text><text xml:space="preserve" font-family="Monaco,Monaco" font-size="33.0" fill="#444444" transform="matrix(1.00, 0.00, -0.00, -1.00, 757.4, 686.6)">c</text><text xml:space="preserve" font-family="Monaco,Monaco" font-size="33.0" fill="#444444" transform="matrix(1.00, 0.00, -0.00, -1.00, 777.2, 686.6)">t</text><text xml:space="preserve" font-family="Monaco,Monaco" font-size="33.0" fill="#444444" transform="matrix(1.00, 0.00, -0.00, -1.00, 797.0, 686.6)">i</text><text xml:space="preserve" font-family="Monaco,Monaco" font-size="33.0" fill="#444444" transform="matrix(1.00, 0.00, -0.00, -1.00, 816.8, 686.6)">o</text><text xml:space="preserve" font-family="Monaco,Monaco" font-size="33.0" fill="#444444" transform="matrix(1.00, 0.00, -0.00, -1.00, 836.6, 686.6)">n</text><text xml:space="preserve" font-family="Monaco,Monaco" font-size="33.0" fill="#444444" transform="matrix(1.00, 0.00, -0.00, -1.00, 856.5, 686.6)">(</text><text xml:space="preserve" font-family="Monaco,Monaco" font-size="33.0" fill="#444444" transform="matrix(1.00, 0.00, -0.00, -1.00, 876.3, 686.6)">)</text><text xml:space="preserve" font-family="Monaco,Monaco" font-size="33.0" fill="#444444" transform="matrix(1.00, 0.00, -0.00, -1.00, 896.1, 686.6)">{</text><text xml:space="preserve" font-family="Monaco,Monaco" font-size="33.0" fill="#444444" transform="matrix(1.00, 0.00, -0.00, -1.00, 84.0, 642.6)"> </text><text xml:space="preserve" font-family="Monaco,Monaco" font-size="33.0" fill="#444444" transform="matrix(1.00, 0.00, -0.00, -1.00, 103.8, 642.6)"> </text><text xml:space="preserve" font-family="Monaco,Monaco" font-size="33.0" fill="#444444" transform="matrix(1.00, 0.00, -0.00, -1.00, 123.6, 642.6)"> </text><text xml:space="preserve" font-family="Monaco,Monaco" font-size="33.0" fill="#444444" transform="matrix(1.00, 0.00, -0.00, -1.00, 143.4, 642.6)"> </text><text xml:space="preserve" font-family="Monaco,Monaco" font-size="33.0" fill="#444444" transform="matrix(1.00, 0.00, -0.00, -1.00, 163.2, 642.6)"> </text><text xml:space="preserve" font-family="Monaco,Monaco" font-size="33.0" fill="#444444" transform="matrix(1.00, 0.00, -0.00, -1.00, 183.0, 642.6)"> </text><text xml:space="preserve" font-family="Monaco,Monaco" font-size="33.0" fill="#444444" transform="matrix(1.00, 0.00, -0.00, -1.00, 202.8, 642.6)">t</text><text xml:space="preserve" font-family="Monaco,Monaco" font-size="33.0" fill="#444444" transform="matrix(1.00, 0.00, -0.00, -1.00, 222.6, 642.6)">h</text><text xml:space="preserve" font-family="Monaco,Monaco" font-size="33.0" fill="#444444" transform="matrix(1.00, 0.00, -0.00, -1.00, 242.5, 642.6)">i</text><text xml:space="preserve" font-family="Monaco,Monaco" font-size="33.0" fill="#444444" transform="matrix(1.00, 0.00, -0.00, -1.00, 262.3, 642.6)">s</text><text xml:space="preserve" font-family="Monaco,Monaco" font-size="33.0" fill="#444444" transform="matrix(1.00, 0.00, -0.00, -1.00, 282.1, 642.6)">.</text><text xml:space="preserve" font-family="Monaco,Monaco" font-size="33.0" fill="#444444" transform="matrix(1.00, 0.00, -0.00, -1.00, 301.9, 642.6)">e</text><text xml:space="preserve" font-family="Monaco,Monaco" font-size="33.0" fill="#444444" transform="matrix(1.00, 0.00, -0.00, -1.00, 321.7, 642.6)">x</text><text xml:space="preserve" font-family="Monaco,Monaco" font-size="33.0" fill="#444444" transform="matrix(1.00, 0.00, -0.00, -1.00, 341.5, 642.6)">p</text><text xml:space="preserve" font-family="Monaco,Monaco" font-size="33.0" fill="#444444" transform="matrix(1.00, 0.00, -0.00, -1.00, 361.3, 642.6)">a</text><text xml:space="preserve" font-family="Monaco,Monaco" font-size="33.0" fill="#444444" transform="matrix(1.00, 0.00, -0.00, -1.00, 381.1, 642.6)">n</text><text xml:space="preserve" font-family="Monaco,Monaco" font-size="33.0" fill="#444444" transform="matrix(1.00, 0.00, -0.00, -1.00, 400.9, 642.6)">d</text><text xml:space="preserve" font-family="Monaco,Monaco" font-size="33.0" fill="#444444" transform="matrix(1.00, 0.00, -0.00, -1.00, 420.7, 642.6)">(</text><text xml:space="preserve" font-family="Monaco,Monaco" font-size="33.0" fill="#444444" transform="matrix(1.00, 0.00, -0.00, -1.00, 440.5, 642.6)">)</text><text xml:space="preserve" font-family="Monaco,Monaco" font-size="33.0" fill="#444444" transform="matrix(1.00, 0.00, -0.00, -1.00, 460.3, 642.6)">;</text><text xml:space="preserve" font-family="Monaco,Monaco" font-size="33.0" fill="#444444" transform="matrix(1.00, 0.00, -0.00, -1.00, 84.0, 598.6)"> </text><text xml:space="preserve" font-family="Monaco,Monaco" font-size="33.0" fill="#444444" transform="matrix(1.00, 0.00, -0.00, -1.00, 103.8, 598.6)"> </text><text xml:space="preserve" font-family="Monaco,Monaco" font-size="33.0" fill="#444444" transform="matrix(1.00, 0.00, -0.00, -1.00, 123.6, 598.6)"> </text><text xml:space="preserve" font-family="Monaco,Monaco" font-size="33.0" fill="#444444" transform="matrix(1.00, 0.00, -0.00, -1.00, 143.4, 598.6)"> </text><text xml:space="preserve" font-family="Monaco,Monaco" font-size="33.0" fill="#444444" transform="matrix(1.00, 0.00, -0.00, -1.00, 163.2, 598.6)">}</text><text xml:space="preserve" font-family="Monaco,Monaco" font-size="33.0" fill="#444444" transform="matrix(1.00, 0.00, -0.00, -1.00, 183.0, 598.6)">)</text><text xml:space="preserve" font-family="Monaco,Monaco" font-size="33.0" fill="#444444" transform="matrix(1.00, 0.00, -0.00, -1.00, 202.8, 598.6)">;</text><text xml:space="preserve" font-family="Monaco,Monaco" font-size="33.0" fill="#444444" transform="matrix(1.00, 0.00, -0.00, -1.00, 84.0, 554.6)"> </text><text xml:space="preserve" font-family="Monaco,Monaco" font-size="33.0" fill="#444444" transform="matrix(1.00, 0.00, -0.00, -1.00, 103.8, 554.6)"> </text><text xml:space="preserve" font-family="Monaco,Monaco" font-size="33.0" fill="#444444" transform="matrix(1.00, 0.00, -0.00, -1.00, 123.6, 554.6)">}</text><text xml:space="preserve" font-family="Monaco,Monaco" font-size="33.0" fill="#444444" transform="matrix(1.00, 0.00, -0.00, -1.00, 143.4, 554.6)">,</text><text xml:space="preserve" font-family="Monaco,Monaco" font-size="33.0" fill="#444444" transform="matrix(1.00, 0.00, -0.00, -1.00, 84.0, 466.6)"> </text><text xml:space="preserve" font-family="Monaco,Monaco" font-size="33.0" fill="#444444" transform="matrix(1.00, 0.00, -0.00, -1.00, 103.8, 466.6)"> </text><text xml:space="preserve" font-family="Monaco,Monaco" font-size="33.0" fill="#444444" transform="matrix(1.00, 0.00, -0.00, -1.00, 123.6, 466.6)">m</text><text xml:space="preserve" font-family="Monaco,Monaco" font-size="33.0" fill="#444444" transform="matrix(1.00, 0.00, -0.00, -1.00, 143.4, 466.6)">o</text><text xml:space="preserve" font-family="Monaco,Monaco" font-size="33.0" fill="#444444" transform="matrix(1.00, 0.00, -0.00, -1.00, 163.2, 466.6)">u</text><text xml:space="preserve" font-family="Monaco,Monaco" font-size="33.0" fill="#444444" transform="matrix(1.00, 0.00, -0.00, -1.00, 183.0, 466.6)">s</text><text xml:space="preserve" font-family="Monaco,Monaco" font-size="33.0" fill="#444444" transform="matrix(1.00, 0.00, -0.00, -1.00, 202.8, 466.6)">e</text><text xml:space="preserve" font-family="Monaco,Monaco" font-size="33.0" fill="#444444" transform="matrix(1.00, 0.00, -0.00, -1.00, 222.6, 466.6)">l</text><text xml:space="preserve" font-family="Monaco,Monaco" font-size="33.0" fill="#444444" transform="matrix(1.00, 0.00, -0.00, -1.00, 242.5, 466.6)">e</text><text xml:space="preserve" font-family="Monaco,Monaco" font-size="33.0" fill="#444444" transform="matrix(1.00, 0.00, -0.00, -1.00, 262.3, 466.6)">a</text><text xml:space="preserve" font-family="Monaco,Monaco" font-size="33.0" fill="#444444" transform="matrix(1.00, 0.00, -0.00, -1.00, 282.1, 466.6)">v</text><text xml:space="preserve" font-family="Monaco,Monaco" font-size="33.0" fill="#444444" transform="matrix(1.00, 0.00, -0.00, -1.00, 301.9, 466.6)">e</text><text xml:space="preserve" font-family="Monaco,Monaco" font-size="33.0" fill="#444444" transform="matrix(1.00, 0.00, -0.00, -1.00, 321.7, 466.6)">:</text><text xml:space="preserve" font-family="Monaco,Monaco" font-size="33.0" fill="#444444" transform="matrix(1.00, 0.00, -0.00, -1.00, 341.5, 466.6)"> </text><text xml:space="preserve" font-family="Monaco,Monaco" font-size="33.0" fill="#444444" transform="matrix(1.00, 0.00, -0.00, -1.00, 361.3, 466.6)">f</text><text xml:space="preserve" font-family="Monaco,Monaco" font-size="33.0" fill="#444444" transform="matrix(1.00, 0.00, -0.00, -1.00, 381.1, 466.6)">u</text><text xml:space="preserve" font-family="Monaco,Monaco" font-size="33.0" fill="#444444" transform="matrix(1.00, 0.00, -0.00, -1.00, 400.9, 466.6)">n</text><text xml:space="preserve" font-family="Monaco,Monaco" font-size="33.0" fill="#444444" transform="matrix(1.00, 0.00, -0.00, -1.00, 420.7, 466.6)">c</text><text xml:space="preserve" font-family="Monaco,Monaco" font-size="33.0" fill="#444444" transform="matrix(1.00, 0.00, -0.00, -1.00, 440.5, 466.6)">t</text><text xml:space="preserve" font-family="Monaco,Monaco" font-size="33.0" fill="#444444" transform="matrix(1.00, 0.00, -0.00, -1.00, 460.3, 466.6)">i</text><text xml:space="preserve" font-family="Monaco,Monaco" font-size="33.0" fill="#444444" transform="matrix(1.00, 0.00, -0.00, -1.00, 480.1, 466.6)">o</text><text xml:space="preserve" font-family="Monaco,Monaco" font-size="33.0" fill="#444444" transform="matrix(1.00, 0.00, -0.00, -1.00, 499.9, 466.6)">n</text><text xml:space="preserve" font-family="Monaco,Monaco" font-size="33.0" fill="#444444" transform="matrix(1.00, 0.00, -0.00, -1.00, 519.7, 466.6)">(</text><text xml:space="preserve" font-family="Monaco,Monaco" font-size="33.0" fill="#444444" transform="matrix(1.00, 0.00, -0.00, -1.00, 539.6, 466.6)">)</text><text xml:space="preserve" font-family="Monaco,Monaco" font-size="33.0" fill="#444444" transform="matrix(1.00, 0.00, -0.00, -1.00, 559.4, 466.6)">{</text><text xml:space="preserve" font-family="Monaco,Monaco" font-size="33.0" fill="#444444" transform="matrix(1.00, 0.00, -0.00, -1.00, 84.0, 422.6)"> </text><text xml:space="preserve" font-family="Monaco,Monaco" font-size="33.0" fill="#444444" transform="matrix(1.00, 0.00, -0.00, -1.00, 103.8, 422.6)"> </text><text xml:space="preserve" font-family="Monaco,Monaco" font-size="33.0" fill="#444444" transform="matrix(1.00, 0.00, -0.00, -1.00, 123.6, 422.6)"> </text><text xml:space="preserve" font-family="Monaco,Monaco" font-size="33.0" fill="#444444" transform="matrix(1.00, 0.00, -0.00, -1.00, 143.4, 422.6)"> </text><text xml:space="preserve" font-family="Monaco,Monaco" font-size="33.0" fill="#444444" transform="matrix(1.00, 0.00, -0.00, -1.00, 163.2, 422.6)">t</text><text xml:space="preserve" font-family="Monaco,Monaco" font-size="33.0" fill="#444444" transform="matrix(1.00, 0.00, -0.00, -1.00, 183.0, 422.6)">h</text><text xml:space="preserve" font-family="Monaco,Monaco" font-size="33.0" fill="#444444" transform="matrix(1.00, 0.00, -0.00, -1.00, 202.8, 422.6)">i</text><text xml:space="preserve" font-family="Monaco,Monaco" font-size="33.0" fill="#444444" transform="matrix(1.00, 0.00, -0.00, -1.00, 222.6, 422.6)">s</text><text xml:space="preserve" font-family="Monaco,Monaco" font-size="33.0" fill="#444444" transform="matrix(1.00, 0.00, -0.00, -1.00, 242.5, 422.6)">.</text><text xml:space="preserve" font-family="Monaco,Monaco" font-size="33.0" fill="#444444" transform="matrix(1.00, 0.00, -0.00, -1.00, 262.3, 422.6)">a</text><text xml:space="preserve" font-family="Monaco,Monaco" font-size="33.0" fill="#444444" transform="matrix(1.00, 0.00, -0.00, -1.00, 282.1, 422.6)">b</text><text xml:space="preserve" font-family="Monaco,Monaco" font-size="33.0" fill="#444444" transform="matrix(1.00, 0.00, -0.00, -1.00, 301.9, 422.6)">o</text><text xml:space="preserve" font-family="Monaco,Monaco" font-size="33.0" fill="#444444" transform="matrix(1.00, 0.00, -0.00, -1.00, 321.7, 422.6)">r</text><text xml:space="preserve" font-family="Monaco,Monaco" font-size="33.0" fill="#444444" transform="matrix(1.00, 0.00, -0.00, -1.00, 341.5, 422.6)">t</text><text xml:space="preserve" font-family="Monaco,Monaco" font-size="33.0" fill="#444444" transform="matrix(1.00, 0.00, -0.00, -1.00, 361.3, 422.6)">A</text><text xml:space="preserve" font-family="Monaco,Monaco" font-size="33.0" fill="#444444" transform="matrix(1.00, 0.00, -0.00, -1.00, 381.1, 422.6)">n</text><text xml:space="preserve" font-family="Monaco,Monaco" font-size="33.0" fill="#444444" transform="matrix(1.00, 0.00, -0.00, -1.00, 400.9, 422.6)">i</text><text xml:space="preserve" font-family="Monaco,Monaco" font-size="33.0" fill="#444444" transform="matrix(1.00, 0.00, -0.00, -1.00, 420.7, 422.6)">m</text><text xml:space="preserve" font-family="Monaco,Monaco" font-size="33.0" fill="#444444" transform="matrix(1.00, 0.00, -0.00, -1.00, 440.5, 422.6)">a</text><text xml:space="preserve" font-family="Monaco,Monaco" font-size="33.0" fill="#444444" transform="matrix(1.00, 0.00, -0.00, -1.00, 460.3, 422.6)">t</text><text xml:space="preserve" font-family="Monaco,Monaco" font-size="33.0" fill="#444444" transform="matrix(1.00, 0.00, -0.00, -1.00, 480.1, 422.6)">i</text><text xml:space="preserve" font-family="Monaco,Monaco" font-size="33.0" fill="#444444" transform="matrix(1.00, 0.00, -0.00, -1.00, 499.9, 422.6)">o</text><text xml:space="preserve" font-family="Monaco,Monaco" font-size="33.0" fill="#444444" transform="matrix(1.00, 0.00, -0.00, -1.00, 519.7, 422.6)">n</text><text xml:space="preserve" font-family="Monaco,Monaco" font-size="33.0" fill="#444444" transform="matrix(1.00, 0.00, -0.00, -1.00, 539.6, 422.6)">(</text><text xml:space="preserve" font-family="Monaco,Monaco" font-size="33.0" fill="#444444" transform="matrix(1.00, 0.00, -0.00, -1.00, 559.4, 422.6)">)</text><text xml:space="preserve" font-family="Monaco,Monaco" font-size="33.0" fill="#444444" transform="matrix(1.00, 0.00, -0.00, -1.00, 579.2, 422.6)">.</text><text xml:space="preserve" font-family="Monaco,Monaco" font-size="33.0" fill="#444444" transform="matrix(1.00, 0.00, -0.00, -1.00, 599.0, 422.6)">t</text><text xml:space="preserve" font-family="Monaco,Monaco" font-size="33.0" fill="#444444" transform="matrix(1.00, 0.00, -0.00, -1.00, 618.8, 422.6)">h</text><text xml:space="preserve" font-family="Monaco,Monaco" font-size="33.0" fill="#444444" transform="matrix(1.00, 0.00, -0.00, -1.00, 638.6, 422.6)">e</text><text xml:space="preserve" font-family="Monaco,Monaco" font-size="33.0" fill="#444444" transform="matrix(1.00, 0.00, -0.00, -1.00, 658.4, 422.6)">n</text><text xml:space="preserve" font-family="Monaco,Monaco" font-size="33.0" fill="#444444" transform="matrix(1.00, 0.00, -0.00, -1.00, 678.2, 422.6)">(</text><text xml:space="preserve" font-family="Monaco,Monaco" font-size="33.0" fill="#444444" transform="matrix(1.00, 0.00, -0.00, -1.00, 698.0, 422.6)">f</text><text xml:space="preserve" font-family="Monaco,Monaco" font-size="33.0" fill="#444444" transform="matrix(1.00, 0.00, -0.00, -1.00, 717.8, 422.6)">u</text><text xml:space="preserve" font-family="Monaco,Monaco" font-size="33.0" fill="#444444" transform="matrix(1.00, 0.00, -0.00, -1.00, 737.6, 422.6)">n</text><text xml:space="preserve" font-family="Monaco,Monaco" font-size="33.0" fill="#444444" transform="matrix(1.00, 0.00, -0.00, -1.00, 757.4, 422.6)">c</text><text xml:space="preserve" font-family="Monaco,Monaco" font-size="33.0" fill="#444444" transform="matrix(1.00, 0.00, -0.00, -1.00, 777.2, 422.6)">t</text><text xml:space="preserve" font-family="Monaco,Monaco" font-size="33.0" fill="#444444" transform="matrix(1.00, 0.00, -0.00, -1.00, 797.0, 422.6)">i</text><text xml:space="preserve" font-family="Monaco,Monaco" font-size="33.0" fill="#444444" transform="matrix(1.00, 0.00, -0.00, -1.00, 816.8, 422.6)">o</text><text xml:space="preserve" font-family="Monaco,Monaco" font-size="33.0" fill="#444444" transform="matrix(1.00, 0.00, -0.00, -1.00, 836.6, 422.6)">n</text><text xml:space="preserve" font-family="Monaco,Monaco" font-size="33.0" fill="#444444" transform="matrix(1.00, 0.00, -0.00, -1.00, 856.5, 422.6)">(</text><text xml:space="preserve" font-family="Monaco,Monaco" font-size="33.0" fill="#444444" transform="matrix(1.00, 0.00, -0.00, -1.00, 876.3, 422.6)">)</text><text xml:space="preserve" font-family="Monaco,Monaco" font-size="33.0" fill="#444444" transform="matrix(1.00, 0.00, -0.00, -1.00, 896.1, 422.6)">{</text><text xml:space="preserve" font-family="Monaco,Monaco" font-size="33.0" fill="#444444" transform="matrix(1.00, 0.00, -0.00, -1.00, 84.0, 378.6)"> </text><text xml:space="preserve" font-family="Monaco,Monaco" font-size="33.0" fill="#444444" transform="matrix(1.00, 0.00, -0.00, -1.00, 103.8, 378.6)"> </text><text xml:space="preserve" font-family="Monaco,Monaco" font-size="33.0" fill="#444444" transform="matrix(1.00, 0.00, -0.00, -1.00, 123.6, 378.6)"> </text><text xml:space="preserve" font-family="Monaco,Monaco" font-size="33.0" fill="#444444" transform="matrix(1.00, 0.00, -0.00, -1.00, 143.4, 378.6)"> </text><text xml:space="preserve" font-family="Monaco,Monaco" font-size="33.0" fill="#444444" transform="matrix(1.00, 0.00, -0.00, -1.00, 163.2, 378.6)"> </text><text xml:space="preserve" font-family="Monaco,Monaco" font-size="33.0" fill="#444444" transform="matrix(1.00, 0.00, -0.00, -1.00, 183.0, 378.6)"> </text><text xml:space="preserve" font-family="Monaco,Monaco" font-size="33.0" fill="#444444" transform="matrix(1.00, 0.00, -0.00, -1.00, 202.8, 378.6)">t</text><text xml:space="preserve" font-family="Monaco,Monaco" font-size="33.0" fill="#444444" transform="matrix(1.00, 0.00, -0.00, -1.00, 222.6, 378.6)">h</text><text xml:space="preserve" font-family="Monaco,Monaco" font-size="33.0" fill="#444444" transform="matrix(1.00, 0.00, -0.00, -1.00, 242.5, 378.6)">i</text><text xml:space="preserve" font-family="Monaco,Monaco" font-size="33.0" fill="#444444" transform="matrix(1.00, 0.00, -0.00, -1.00, 262.3, 378.6)">s</text><text xml:space="preserve" font-family="Monaco,Monaco" font-size="33.0" fill="#444444" transform="matrix(1.00, 0.00, -0.00, -1.00, 282.1, 378.6)">.</text><text xml:space="preserve" font-family="Monaco,Monaco" font-size="33.0" fill="#444444" transform="matrix(1.00, 0.00, -0.00, -1.00, 301.9, 378.6)">c</text><text xml:space="preserve" font-family="Monaco,Monaco" font-size="33.0" fill="#444444" transform="matrix(1.00, 0.00, -0.00, -1.00, 321.7, 378.6)">o</text><text xml:space="preserve" font-family="Monaco,Monaco" font-size="33.0" fill="#444444" transform="matrix(1.00, 0.00, -0.00, -1.00, 341.5, 378.6)">l</text><text xml:space="preserve" font-family="Monaco,Monaco" font-size="33.0" fill="#444444" transform="matrix(1.00, 0.00, -0.00, -1.00, 361.3, 378.6)">l</text><text xml:space="preserve" font-family="Monaco,Monaco" font-size="33.0" fill="#444444" transform="matrix(1.00, 0.00, -0.00, -1.00, 381.1, 378.6)">a</text><text xml:space="preserve" font-family="Monaco,Monaco" font-size="33.0" fill="#444444" transform="matrix(1.00, 0.00, -0.00, -1.00, 400.9, 378.6)">p</text><text xml:space="preserve" font-family="Monaco,Monaco" font-size="33.0" fill="#444444" transform="matrix(1.00, 0.00, -0.00, -1.00, 420.7, 378.6)">s</text><text xml:space="preserve" font-family="Monaco,Monaco" font-size="33.0" fill="#444444" transform="matrix(1.00, 0.00, -0.00, -1.00, 440.5, 378.6)">e</text><text xml:space="preserve" font-family="Monaco,Monaco" font-size="33.0" fill="#444444" transform="matrix(1.00, 0.00, -0.00, -1.00, 460.3, 378.6)">(</text><text xml:space="preserve" font-family="Monaco,Monaco" font-size="33.0" fill="#444444" transform="matrix(1.00, 0.00, -0.00, -1.00, 480.1, 378.6)">)</text><text xml:space="preserve" font-family="Monaco,Monaco" font-size="33.0" fill="#444444" transform="matrix(1.00, 0.00, -0.00, -1.00, 499.9, 378.6)">;</text><text xml:space="preserve" font-family="Monaco,Monaco" font-size="33.0" fill="#444444" transform="matrix(1.00, 0.00, -0.00, -1.00, 84.0, 334.6)"> </text><text xml:space="preserve" font-family="Monaco,Monaco" font-size="33.0" fill="#444444" transform="matrix(1.00, 0.00, -0.00, -1.00, 103.8, 334.6)"> </text><text xml:space="preserve" font-family="Monaco,Monaco" font-size="33.0" fill="#444444" transform="matrix(1.00, 0.00, -0.00, -1.00, 123.6, 334.6)"> </text><text xml:space="preserve" font-family="Monaco,Monaco" font-size="33.0" fill="#444444" transform="matrix(1.00, 0.00, -0.00, -1.00, 143.4, 334.6)"> </text><text xml:space="preserve" font-family="Monaco,Monaco" font-size="33.0" fill="#444444" transform="matrix(1.00, 0.00, -0.00, -1.00, 163.2, 334.6)">}</text><text xml:space="preserve" font-family="Monaco,Monaco" font-size="33.0" fill="#444444" transform="matrix(1.00, 0.00, -0.00, -1.00, 183.0, 334.6)">)</text><text xml:space="preserve" font-family="Monaco,Monaco" font-size="33.0" fill="#444444" transform="matrix(1.00, 0.00, -0.00, -1.00, 202.8, 334.6)">;</text><text xml:space="preserve" font-family="Monaco,Monaco" font-size="33.0" fill="#444444" transform="matrix(1.00, 0.00, -0.00, -1.00, 84.0, 290.6)"> </text><text xml:space="preserve" font-family="Monaco,Monaco" font-size="33.0" fill="#444444" transform="matrix(1.00, 0.00, -0.00, -1.00, 103.8, 290.6)"> </text><text xml:space="preserve" font-family="Monaco,Monaco" font-size="33.0" fill="#444444" transform="matrix(1.00, 0.00, -0.00, -1.00, 123.6, 290.6)">}</text><text xml:space="preserve" font-family="Monaco,Monaco" font-size="33.0" fill="#444444" transform="matrix(1.00, 0.00, -0.00, -1.00, 143.4, 290.6)">,</text><text xml:space="preserve" font-family="Monaco,Monaco" font-size="33.0" fill="#444444" transform="matrix(1.00, 0.00, -0.00, -1.00, 84.0, 202.6)"> </text><text xml:space="preserve" font-family="Monaco,Monaco" font-size="33.0" fill="#444444" transform="matrix(1.00, 0.00, -0.00, -1.00, 103.8, 202.6)"> </text><text xml:space="preserve" font-family="Monaco,Monaco" font-size="33.0" fill="#444444" transform="matrix(1.00, 0.00, -0.00, -1.00, 123.6, 202.6)">/</text><text xml:space="preserve" font-family="Monaco,Monaco" font-size="33.0" fill="#444444" transform="matrix(1.00, 0.00, -0.00, -1.00, 143.4, 202.6)">/</text><text xml:space="preserve" font-family="Monaco,Monaco" font-size="33.0" fill="#444444" transform="matrix(1.00, 0.00, -0.00, -1.00, 163.2, 202.6)"> </text><text xml:space="preserve" font-family="Monaco,Monaco" font-size="33.0" fill="#444444" transform="matrix(1.00, 0.00, -0.00, -1.00, 183.0, 202.6)">.</text><text xml:space="preserve" font-family="Monaco,Monaco" font-size="33.0" fill="#444444" transform="matrix(1.00, 0.00, -0.00, -1.00, 202.8, 202.6)">.</text><text xml:space="preserve" font-family="Monaco,Monaco" font-size="33.0" fill="#444444" transform="matrix(1.00, 0.00, -0.00, -1.00, 222.6, 202.6)">.</text><text xml:space="preserve" font-family="Monaco,Monaco" font-size="33.0" fill="#444444" transform="matrix(1.00, 0.00, -0.00, -1.00, 242.5, 202.6)">m</text><text xml:space="preserve" font-family="Monaco,Monaco" font-size="33.0" fill="#444444" transform="matrix(1.00, 0.00, -0.00, -1.00, 262.3, 202.6)">o</text><text xml:space="preserve" font-family="Monaco,Monaco" font-size="33.0" fill="#444444" transform="matrix(1.00, 0.00, -0.00, -1.00, 282.1, 202.6)">r</text><text xml:space="preserve" font-family="Monaco,Monaco" font-size="33.0" fill="#444444" transform="matrix(1.00, 0.00, -0.00, -1.00, 301.9, 202.6)">e</text><text xml:space="preserve" font-family="Monaco,Monaco" font-size="33.0" fill="#444444" transform="matrix(1.00, 0.00, -0.00, -1.00, 321.7, 202.6)"> </text><text xml:space="preserve" font-family="Monaco,Monaco" font-size="33.0" fill="#444444" transform="matrix(1.00, 0.00, -0.00, -1.00, 341.5, 202.6)">p</text><text xml:space="preserve" font-family="Monaco,Monaco" font-size="33.0" fill="#444444" transform="matrix(1.00, 0.00, -0.00, -1.00, 361.3, 202.6)">u</text><text xml:space="preserve" font-family="Monaco,Monaco" font-size="33.0" fill="#444444" transform="matrix(1.00, 0.00, -0.00, -1.00, 381.1, 202.6)">r</text><text xml:space="preserve" font-family="Monaco,Monaco" font-size="33.0" fill="#444444" transform="matrix(1.00, 0.00, -0.00, -1.00, 400.9, 202.6)">e</text><text xml:space="preserve" font-family="Monaco,Monaco" font-size="33.0" fill="#444444" transform="matrix(1.00, 0.00, -0.00, -1.00, 420.7, 202.6)"> </text><text xml:space="preserve" font-family="Monaco,Monaco" font-size="33.0" fill="#444444" transform="matrix(1.00, 0.00, -0.00, -1.00, 440.5, 202.6)">U</text><text xml:space="preserve" font-family="Monaco,Monaco" font-size="33.0" fill="#444444" transform="matrix(1.00, 0.00, -0.00, -1.00, 460.3, 202.6)">I</text><text xml:space="preserve" font-family="Monaco,Monaco" font-size="33.0" fill="#444444" transform="matrix(1.00, 0.00, -0.00, -1.00, 480.1, 202.6)"> </text><text xml:space="preserve" font-family="Monaco,Monaco" font-size="33.0" fill="#444444" transform="matrix(1.00, 0.00, -0.00, -1.00, 499.9, 202.6)">r</text><text xml:space="preserve" font-family="Monaco,Monaco" font-size="33.0" fill="#444444" transform="matrix(1.00, 0.00, -0.00, -1.00, 519.7, 202.6)">e</text><text xml:space="preserve" font-family="Monaco,Monaco" font-size="33.0" fill="#444444" transform="matrix(1.00, 0.00, -0.00, -1.00, 539.6, 202.6)">l</text><text xml:space="preserve" font-family="Monaco,Monaco" font-size="33.0" fill="#444444" transform="matrix(1.00, 0.00, -0.00, -1.00, 559.4, 202.6)">a</text><text xml:space="preserve" font-family="Monaco,Monaco" font-size="33.0" fill="#444444" transform="matrix(1.00, 0.00, -0.00, -1.00, 579.2, 202.6)">t</text><text xml:space="preserve" font-family="Monaco,Monaco" font-size="33.0" fill="#444444" transform="matrix(1.00, 0.00, -0.00, -1.00, 599.0, 202.6)">e</text><text xml:space="preserve" font-family="Monaco,Monaco" font-size="33.0" fill="#444444" transform="matrix(1.00, 0.00, -0.00, -1.00, 618.8, 202.6)">d</text><text xml:space="preserve" font-family="Monaco,Monaco" font-size="33.0" fill="#444444" transform="matrix(1.00, 0.00, -0.00, -1.00, 638.6, 202.6)"> </text><text xml:space="preserve" font-family="Monaco,Monaco" font-size="33.0" fill="#444444" transform="matrix(1.00, 0.00, -0.00, -1.00, 658.4, 202.6)">c</text><text xml:space="preserve" font-family="Monaco,Monaco" font-size="33.0" fill="#444444" transform="matrix(1.00, 0.00, -0.00, -1.00, 678.2, 202.6)">o</text><text xml:space="preserve" font-family="Monaco,Monaco" font-size="33.0" fill="#444444" transform="matrix(1.00, 0.00, -0.00, -1.00, 698.0, 202.6)">d</text><text xml:space="preserve" font-family="Monaco,Monaco" font-size="33.0" fill="#444444" transform="matrix(1.00, 0.00, -0.00, -1.00, 717.8, 202.6)">e</text><text xml:space="preserve" font-family="Monaco,Monaco" font-size="33.0" fill="#444444" transform="matrix(1.00, 0.00, -0.00, -1.00, 737.6, 202.6)">.</text><text xml:space="preserve" font-family="Monaco,Monaco" font-size="33.0" fill="#444444" transform="matrix(1.00, 0.00, -0.00, -1.00, 757.4, 202.6)">.</text><text xml:space="preserve" font-family="Monaco,Monaco" font-size="33.0" fill="#444444" transform="matrix(1.00, 0.00, -0.00, -1.00, 777.2, 202.6)">.</text><text xml:space="preserve" font-family="Monaco,Monaco" font-size="33.0" fill="#444444" transform="matrix(1.00, 0.00, -0.00, -1.00, 84.0, 158.6)">}</text><text xml:space="preserve" font-family="Monaco,Monaco" font-size="33.0" fill="#444444" transform="matrix(1.00, 0.00, -0.00, -1.00, 103.8, 158.6)">)</text><text xml:space="preserve" font-family="Monaco,Monaco" font-size="33.0" fill="#444444" transform="matrix(1.00, 0.00, -0.00, -1.00, 123.6, 158.6)">;</text></g></svg>