<?xml version="1.0" encoding="UTF-8" standalone="no"?><svg xmlns="http://www.w3.org/2000/svg" xmlns:xlink="http://www.w3.org/1999/xlink" clip-rule="evenodd" stroke-miterlimit="10" viewBox="0 0 1920 1080"><desc>SVG generated by Keynote</desc><defs></defs><g transform="matrix(1.00, 0.00, -0.00, -1.00, 0.0, 1080.0)"><path d="M 0.0 1080.0 L 1920.0 1080.0 L 1920.0 0.0 L 0.0 0.0 Z M 0.0 1080.0 " fill="#FEFFFE"></path><g opacity="0.75"><g><clipPath id="clip0x6100006aba00"><path d="M 79.0 4.0 L 1841.0 4.0 L 1841.0 25.0 L 79.0 25.0 Z M 79.0 4.0 "></path></clipPath><g clip-path="url(#clip0x6100006aba00)"><text xml:space="preserve" font-family="Apercu,Apercu" font-size="10.0" fill="#999999" transform="matrix(1.00, 0.00, -0.00, -1.00, 903.0, 11.2)">©</text><text xml:space="preserve" font-family="Apercu,Apercu" font-size="10.0" fill="#999999" transform="matrix(1.00, 0.00, -0.00, -1.00, 912.0, 11.2)"> </text><text xml:space="preserve" font-family="Apercu,Apercu" font-size="10.0" fill="#999999" transform="matrix(1.00, 0.00, -0.00, -1.00, 914.6, 11.2)">2</text><text xml:space="preserve" font-family="Apercu,Apercu" font-size="10.0" fill="#999999" transform="matrix(1.00, 0.00, -0.00, -1.00, 920.2, 11.2)">0</text><text xml:space="preserve" font-family="Apercu,Apercu" font-size="10.0" fill="#999999" transform="matrix(1.00, 0.00, -0.00, -1.00, 926.2, 11.2)">1</text><text xml:space="preserve" font-family="Apercu,Apercu" font-size="10.0" fill="#999999" transform="matrix(1.00, 0.00, -0.00, -1.00, 929.7, 11.2)">4</text><text xml:space="preserve" font-family="Apercu,Apercu" font-size="10.0" fill="#999999" transform="matrix(1.00, 0.00, -0.00, -1.00, 935.7, 11.2)"> </text><text xml:space="preserve" font-family="Apercu,Apercu" font-size="10.0" fill="#999999" transform="matrix(1.00, 0.00, -0.00, -1.00, 938.3, 11.2)">T</text><text xml:space="preserve" font-family="Apercu,Apercu" font-size="10.0" fill="#999999" transform="matrix(1.00, 0.00, -0.00, -1.00, 943.6, 11.2)">h</text><text xml:space="preserve" font-family="Apercu,Apercu" font-size="10.0" fill="#999999" transform="matrix(1.00, 0.00, -0.00, -1.00, 949.3, 11.2)">e</text><text xml:space="preserve" font-family="Apercu,Apercu" font-size="10.0" fill="#999999" transform="matrix(1.00, 0.00, -0.00, -1.00, 954.9, 11.2)"> </text><text xml:space="preserve" font-family="Apercu,Apercu" font-size="10.0" fill="#999999" transform="matrix(1.00, 0.00, -0.00, -1.00, 957.6, 11.2)">A</text><text xml:space="preserve" font-family="Apercu,Apercu" font-size="10.0" fill="#999999" transform="matrix(1.00, 0.00, -0.00, -1.00, 963.5, 11.2)">p</text><text xml:space="preserve" font-family="Apercu,Apercu" font-size="10.0" fill="#999999" transform="matrix(1.00, 0.00, -0.00, -1.00, 969.5, 11.2)">p</text><text xml:space="preserve" font-family="Apercu,Apercu" font-size="10.0" fill="#999999" transform="matrix(1.00, 0.00, -0.00, -1.00, 975.5, 11.2)"> </text><text xml:space="preserve" font-family="Apercu,Apercu" font-size="10.0" fill="#999999" transform="matrix(1.00, 0.00, -0.00, -1.00, 978.2, 11.2)">B</text><text xml:space="preserve" font-family="Apercu,Apercu" font-size="10.0" fill="#999999" transform="matrix(1.00, 0.00, -0.00, -1.00, 984.4, 11.2)">u</text><text xml:space="preserve" font-family="Apercu,Apercu" font-size="10.0" fill="#999999" transform="matrix(1.00, 0.00, -0.00, -1.00, 990.0, 11.2)">s</text><text xml:space="preserve" font-family="Apercu,Apercu" font-size="10.0" fill="#999999" transform="matrix(1.00, 0.00, -0.00, -1.00, 994.4, 11.2)">i</text><text xml:space="preserve" font-family="Apercu,Apercu" font-size="10.0" fill="#999999" transform="matrix(1.00, 0.00, -0.00, -1.00, 996.8, 11.2)">n</text><text xml:space="preserve" font-family="Apercu,Apercu" font-size="10.0" fill="#999999" transform="matrix(1.00, 0.00, -0.00, -1.00, 1002.4, 11.2)">e</text><text xml:space="preserve" font-family="Apercu,Apercu" font-size="10.0" fill="#999999" transform="matrix(1.00, 0.00, -0.00, -1.00, 1007.9, 11.2)">s</text><text xml:space="preserve" font-family="Apercu,Apercu" font-size="10.0" fill="#999999" transform="matrix(1.00, 0.00, -0.00, -1.00, 1012.4, 11.2)">s</text></g></g></g><text xml:space="preserve" font-family="Apercu-Bold,Apercu" font-weight="bold" font-size="66.0" fill="#FF4400" transform="matrix(1.00, 0.00, -0.00, -1.00, 459.9, 529.7)">H</text><text xml:space="preserve" font-family="Apercu-Bold,Apercu" font-weight="bold" font-size="66.0" fill="#FF4400" transform="matrix(1.00, 0.00, -0.00, -1.00, 506.6, 529.7)">o</text><text xml:space="preserve" font-family="Apercu-Bold,Apercu" font-weight="bold" font-size="66.0" fill="#FF4400" transform="matrix(1.00, 0.00, -0.00, -1.00, 545.7, 529.7)">w</text><text xml:space="preserve" font-family="Apercu-Bold,Apercu" font-weight="bold" font-size="66.0" fill="#FF4400" transform="matrix(1.00, 0.00, -0.00, -1.00, 596.2, 529.7)"> </text><text xml:space="preserve" font-family="Apercu-Bold,Apercu" font-weight="bold" font-size="66.0" fill="#FF4400" transform="matrix(1.00, 0.00, -0.00, -1.00, 612.6, 529.7)">d</text><text xml:space="preserve" font-family="Apercu-Bold,Apercu" font-weight="bold" font-size="66.0" fill="#FF4400" transform="matrix(1.00, 0.00, -0.00, -1.00, 651.3, 529.7)">o</text><text xml:space="preserve" font-family="Apercu-Bold,Apercu" font-weight="bold" font-size="66.0" fill="#FF4400" transform="matrix(1.00, 0.00, -0.00, -1.00, 690.8, 529.7)"> </text><text xml:space="preserve" font-family="Apercu-Bold,Apercu" font-weight="bold" font-size="66.0" fill="#FF4400" transform="matrix(1.00, 0.00, -0.00, -1.00, 707.2, 529.7)">w</text><text xml:space="preserve" font-family="Apercu-Bold,Apercu" font-weight="bold" font-size="66.0" fill="#FF4400" transform="matrix(1.00, 0.00, -0.00, -1.00, 757.1, 529.7)">e</text><text xml:space="preserve" font-family="Apercu-Bold,Apercu" font-weight="bold" font-size="66.0" fill="#FF4400" transform="matrix(1.00, 0.00, -0.00, -1.00, 793.8, 529.7)"> </text><text xml:space="preserve" font-family="Apercu-Bold,Apercu" font-weight="bold" font-size="66.0" fill="#FF4400" transform="matrix(1.00, 0.00, -0.00, -1.00, 810.2, 529.7)">g</text><text xml:space="preserve" font-family="Apercu-Bold,Apercu" font-weight="bold" font-size="66.0" fill="#FF4400" transform="matrix(1.00, 0.00, -0.00, -1.00, 844.4, 529.7)">l</text><text xml:space="preserve" font-family="Apercu-Bold,Apercu" font-weight="bold" font-size="66.0" fill="#FF4400" transform="matrix(1.00, 0.00, -0.00, -1.00, 861.5, 529.7)">u</text><text xml:space="preserve" font-family="Apercu-Bold,Apercu" font-weight="bold" font-size="66.0" fill="#FF4400" transform="matrix(1.00, 0.00, -0.00, -1.00, 899.7, 529.7)">e</text><text xml:space="preserve" font-family="Apercu-Bold,Apercu" font-weight="bold" font-size="66.0" fill="#FF4400" transform="matrix(1.00, 0.00, -0.00, -1.00, 936.4, 529.7)"> </text><text xml:space="preserve" font-family="Apercu-Bold,Apercu" font-weight="bold" font-size="66.0" fill="#FF4400" transform="matrix(1.00, 0.00, -0.00, -1.00, 952.8, 529.7)">a</text><text xml:space="preserve" font-family="Apercu-Bold,Apercu" font-weight="bold" font-size="66.0" fill="#FF4400" transform="matrix(1.00, 0.00, -0.00, -1.00, 986.2, 529.7)">l</text><text xml:space="preserve" font-family="Apercu-Bold,Apercu" font-weight="bold" font-size="66.0" fill="#FF4400" transform="matrix(1.00, 0.00, -0.00, -1.00, 1002.4, 529.7)">l</text><text xml:space="preserve" font-family="Apercu-Bold,Apercu" font-weight="bold" font-size="66.0" fill="#FF4400" transform="matrix(1.00, 0.00, -0.00, -1.00, 1020.7, 529.7)"> </text><text xml:space="preserve" font-family="Apercu-Bold,Apercu" font-weight="bold" font-size="66.0" fill="#FF4400" transform="matrix(1.00, 0.00, -0.00, -1.00, 1037.1, 529.7)">t</text><text xml:space="preserve" font-family="Apercu-Bold,Apercu" font-weight="bold" font-size="66.0" fill="#FF4400" transform="matrix(1.00, 0.00, -0.00, -1.00, 1062.6, 529.7)">h</text><text xml:space="preserve" font-family="Apercu-Bold,Apercu" font-weight="bold" font-size="66.0" fill="#FF4400" transform="matrix(1.00, 0.00, -0.00, -1.00, 1100.8, 529.7)">i</text><text xml:space="preserve" font-family="Apercu-Bold,Apercu" font-weight="bold" font-size="66.0" fill="#FF4400" transform="matrix(1.00, 0.00, -0.00, -1.00, 1117.8, 529.7)">s</text><text xml:space="preserve" font-family="Apercu-Bold,Apercu" font-weight="bold" font-size="66.0" fill="#FF4400" transform="matrix(1.00, 0.00, -0.00, -1.00, 1147.9, 529.7)"> </text><text xml:space="preserve" font-family="Apercu-Bold,Apercu" font-weight="bold" font-size="66.0" fill="#FF4400" transform="matrix(1.00, 0.00, -0.00, -1.00, 1164.3, 529.7)">t</text><text xml:space="preserve" font-family="Apercu-Bold,Apercu" font-weight="bold" font-size="66.0" fill="#FF4400" transform="matrix(1.00, 0.00, -0.00, -1.00, 1189.8, 529.7)">o</text><text xml:space="preserve" font-family="Apercu-Bold,Apercu" font-weight="bold" font-size="66.0" fill="#FF4400" transform="matrix(1.00, 0.00, -0.00, -1.00, 1229.1, 529.7)">g</text><text xml:space="preserve" font-family="Apercu-Bold,Apercu" font-weight="bold" font-size="66.0" fill="#FF4400" transform="matrix(1.00, 0.00, -0.00, -1.00, 1262.9, 529.7)">e</text><text xml:space="preserve" font-family="Apercu-Bold,Apercu" font-weight="bold" font-size="66.0" fill="#FF4400" transform="matrix(1.00, 0.00, -0.00, -1.00, 1300.6, 529.7)">t</text><text xml:space="preserve" font-family="Apercu-Bold,Apercu" font-weight="bold" font-size="66.0" fill="#FF4400" transform="matrix(1.00, 0.00, -0.00, -1.00, 1326.0, 529.7)">h</text><text xml:space="preserve" font-family="Apercu-Bold,Apercu" font-weight="bold" font-size="66.0" fill="#FF4400" transform="matrix(1.00, 0.00, -0.00, -1.00, 1365.5, 529.7)">e</text><text xml:space="preserve" font-family="Apercu-Bold,Apercu" font-weight="bold" font-size="66.0" fill="#FF4400" transform="matrix(1.00, 0.00, -0.00, -1.00, 1401.9, 529.7)">r</text><text xml:space="preserve" font-family="Apercu-Bold,Apercu" font-weight="bold" font-size="66.0" fill="#FF4400" transform="matrix(1.00, 0.00, -0.00, -1.00, 1429.8, 529.7)">?</text></g></svg>