<?xml version="1.0" encoding="UTF-8" standalone="no"?><svg xmlns="http://www.w3.org/2000/svg" xmlns:xlink="http://www.w3.org/1999/xlink" clip-rule="evenodd" stroke-miterlimit="10" viewBox="0 0 1920 1080"><desc>SVG generated by Keynote</desc><defs></defs><g transform="matrix(1.00, 0.00, -0.00, -1.00, 0.0, 1080.0)"><path d="M 0.0 1080.0 L 1920.0 1080.0 L 1920.0 0.0 L 0.0 0.0 Z M 0.0 1080.0 " fill="#FEFFFE"></path><g opacity="0.75"><g><clipPath id="clip0x6080004bc5c0"><path d="M 79.0 4.0 L 1841.0 4.0 L 1841.0 25.0 L 79.0 25.0 Z M 79.0 4.0 "></path></clipPath><g clip-path="url(#clip0x6080004bc5c0)"><text xml:space="preserve" font-family="Apercu,Apercu" font-size="10.0" fill="#999999" transform="matrix(1.00, 0.00, -0.00, -1.00, 903.0, 11.2)">©</text><text xml:space="preserve" font-family="Apercu,Apercu" font-size="10.0" fill="#999999" transform="matrix(1.00, 0.00, -0.00, -1.00, 912.0, 11.2)"> </text><text xml:space="preserve" font-family="Apercu,Apercu" font-size="10.0" fill="#999999" transform="matrix(1.00, 0.00, -0.00, -1.00, 914.6, 11.2)">2</text><text xml:space="preserve" font-family="Apercu,Apercu" font-size="10.0" fill="#999999" transform="matrix(1.00, 0.00, -0.00, -1.00, 920.2, 11.2)">0</text><text xml:space="preserve" font-family="Apercu,Apercu" font-size="10.0" fill="#999999" transform="matrix(1.00, 0.00, -0.00, -1.00, 926.2, 11.2)">1</text><text xml:space="preserve" font-family="Apercu,Apercu" font-size="10.0" fill="#999999" transform="matrix(1.00, 0.00, -0.00, -1.00, 929.7, 11.2)">4</text><text xml:space="preserve" font-family="Apercu,Apercu" font-size="10.0" fill="#999999" transform="matrix(1.00, 0.00, -0.00, -1.00, 935.7, 11.2)"> </text><text xml:space="preserve" font-family="Apercu,Apercu" font-size="10.0" fill="#999999" transform="matrix(1.00, 0.00, -0.00, -1.00, 938.3, 11.2)">T</text><text xml:space="preserve" font-family="Apercu,Apercu" font-size="10.0" fill="#999999" transform="matrix(1.00, 0.00, -0.00, -1.00, 943.6, 11.2)">h</text><text xml:space="preserve" font-family="Apercu,Apercu" font-size="10.0" fill="#999999" transform="matrix(1.00, 0.00, -0.00, -1.00, 949.3, 11.2)">e</text><text xml:space="preserve" font-family="Apercu,Apercu" font-size="10.0" fill="#999999" transform="matrix(1.00, 0.00, -0.00, -1.00, 954.9, 11.2)"> </text><text xml:space="preserve" font-family="Apercu,Apercu" font-size="10.0" fill="#999999" transform="matrix(1.00, 0.00, -0.00, -1.00, 957.6, 11.2)">A</text><text xml:space="preserve" font-family="Apercu,Apercu" font-size="10.0" fill="#999999" transform="matrix(1.00, 0.00, -0.00, -1.00, 963.5, 11.2)">p</text><text xml:space="preserve" font-family="Apercu,Apercu" font-size="10.0" fill="#999999" transform="matrix(1.00, 0.00, -0.00, -1.00, 969.5, 11.2)">p</text><text xml:space="preserve" font-family="Apercu,Apercu" font-size="10.0" fill="#999999" transform="matrix(1.00, 0.00, -0.00, -1.00, 975.5, 11.2)"> </text><text xml:space="preserve" font-family="Apercu,Apercu" font-size="10.0" fill="#999999" transform="matrix(1.00, 0.00, -0.00, -1.00, 978.2, 11.2)">B</text><text xml:space="preserve" font-family="Apercu,Apercu" font-size="10.0" fill="#999999" transform="matrix(1.00, 0.00, -0.00, -1.00, 984.4, 11.2)">u</text><text xml:space="preserve" font-family="Apercu,Apercu" font-size="10.0" fill="#999999" transform="matrix(1.00, 0.00, -0.00, -1.00, 990.0, 11.2)">s</text><text xml:space="preserve" font-family="Apercu,Apercu" font-size="10.0" fill="#999999" transform="matrix(1.00, 0.00, -0.00, -1.00, 994.4, 11.2)">i</text><text xml:space="preserve" font-family="Apercu,Apercu" font-size="10.0" fill="#999999" transform="matrix(1.00, 0.00, -0.00, -1.00, 996.8, 11.2)">n</text><text xml:space="preserve" font-family="Apercu,Apercu" font-size="10.0" fill="#999999" transform="matrix(1.00, 0.00, -0.00, -1.00, 1002.4, 11.2)">e</text><text xml:space="preserve" font-family="Apercu,Apercu" font-size="10.0" fill="#999999" transform="matrix(1.00, 0.00, -0.00, -1.00, 1007.9, 11.2)">s</text><text xml:space="preserve" font-family="Apercu,Apercu" font-size="10.0" fill="#999999" transform="matrix(1.00, 0.00, -0.00, -1.00, 1012.4, 11.2)">s</text></g></g></g><text xml:space="preserve" font-family="Apercu,Apercu" font-size="44.0" fill="#444444" transform="matrix(1.00, 0.00, -0.00, -1.00, 812.9, 437.9)">A</text><text xml:space="preserve" font-family="Apercu,Apercu" font-size="44.0" fill="#444444" transform="matrix(1.00, 0.00, -0.00, -1.00, 839.0, 437.9)">m</text><text xml:space="preserve" font-family="Apercu,Apercu" font-size="44.0" fill="#444444" transform="matrix(1.00, 0.00, -0.00, -1.00, 876.3, 437.9)">b</text><text xml:space="preserve" font-family="Apercu,Apercu" font-size="44.0" fill="#444444" transform="matrix(1.00, 0.00, -0.00, -1.00, 902.3, 437.9)">i</text><text xml:space="preserve" font-family="Apercu,Apercu" font-size="44.0" fill="#444444" transform="matrix(1.00, 0.00, -0.00, -1.00, 914.0, 437.9)">t</text><text xml:space="preserve" font-family="Apercu,Apercu" font-size="44.0" fill="#444444" transform="matrix(1.00, 0.00, -0.00, -1.00, 930.6, 437.9)">i</text><text xml:space="preserve" font-family="Apercu,Apercu" font-size="44.0" fill="#444444" transform="matrix(1.00, 0.00, -0.00, -1.00, 941.9, 437.9)">o</text><text xml:space="preserve" font-family="Apercu,Apercu" font-size="44.0" fill="#444444" transform="matrix(1.00, 0.00, -0.00, -1.00, 967.6, 437.9)">u</text><text xml:space="preserve" font-family="Apercu,Apercu" font-size="44.0" fill="#444444" transform="matrix(1.00, 0.00, -0.00, -1.00, 992.4, 437.9)">s</text><text xml:space="preserve" font-family="Apercu,Apercu" font-size="44.0" fill="#444444" transform="matrix(1.00, 0.00, -0.00, -1.00, 1011.1, 437.9)">,</text><text xml:space="preserve" font-family="Apercu,Apercu" font-size="44.0" fill="#444444" transform="matrix(1.00, 0.00, -0.00, -1.00, 1025.1, 437.9)"> </text><text xml:space="preserve" font-family="Apercu,Apercu" font-size="44.0" fill="#444444" transform="matrix(1.00, 0.00, -0.00, -1.00, 1036.9, 437.9)">u</text><text xml:space="preserve" font-family="Apercu,Apercu" font-size="44.0" fill="#444444" transform="matrix(1.00, 0.00, -0.00, -1.00, 1061.6, 437.9)">h</text><text xml:space="preserve" font-family="Apercu,Apercu" font-size="44.0" fill="#444444" transform="matrix(1.00, 0.00, -0.00, -1.00, 1087.4, 437.9)">?</text><text xml:space="preserve" font-family="Apercu-Bold,Apercu" font-weight="bold" font-size="66.0" fill="#FF4400" transform="matrix(1.00, 0.00, -0.00, -1.00, 198.1, 529.7)">A</text><text xml:space="preserve" font-family="Apercu-Bold,Apercu" font-weight="bold" font-size="66.0" fill="#FF4400" transform="matrix(1.00, 0.00, -0.00, -1.00, 238.6, 529.7)"> </text><text xml:space="preserve" font-family="Apercu-Bold,Apercu" font-weight="bold" font-size="66.0" fill="#FF4400" transform="matrix(1.00, 0.00, -0.00, -1.00, 255.0, 529.7)">f</text><text xml:space="preserve" font-family="Apercu-Bold,Apercu" font-weight="bold" font-size="66.0" fill="#FF4400" transform="matrix(1.00, 0.00, -0.00, -1.00, 278.1, 529.7)">r</text><text xml:space="preserve" font-family="Apercu-Bold,Apercu" font-weight="bold" font-size="66.0" fill="#FF4400" transform="matrix(1.00, 0.00, -0.00, -1.00, 306.3, 529.7)">a</text><text xml:space="preserve" font-family="Apercu-Bold,Apercu" font-weight="bold" font-size="66.0" fill="#FF4400" transform="matrix(1.00, 0.00, -0.00, -1.00, 339.8, 529.7)">m</text><text xml:space="preserve" font-family="Apercu-Bold,Apercu" font-weight="bold" font-size="66.0" fill="#FF4400" transform="matrix(1.00, 0.00, -0.00, -1.00, 396.7, 529.7)">e</text><text xml:space="preserve" font-family="Apercu-Bold,Apercu" font-weight="bold" font-size="66.0" fill="#FF4400" transform="matrix(1.00, 0.00, -0.00, -1.00, 433.4, 529.7)">w</text><text xml:space="preserve" font-family="Apercu-Bold,Apercu" font-weight="bold" font-size="66.0" fill="#FF4400" transform="matrix(1.00, 0.00, -0.00, -1.00, 483.4, 529.7)">o</text><text xml:space="preserve" font-family="Apercu-Bold,Apercu" font-weight="bold" font-size="66.0" fill="#FF4400" transform="matrix(1.00, 0.00, -0.00, -1.00, 521.9, 529.7)">r</text><text xml:space="preserve" font-family="Apercu-Bold,Apercu" font-weight="bold" font-size="66.0" fill="#FF4400" transform="matrix(1.00, 0.00, -0.00, -1.00, 550.1, 529.7)">k</text><text xml:space="preserve" font-family="Apercu-Bold,Apercu" font-weight="bold" font-size="66.0" fill="#FF4400" transform="matrix(1.00, 0.00, -0.00, -1.00, 585.5, 529.7)"> </text><text xml:space="preserve" font-family="Apercu-Bold,Apercu" font-weight="bold" font-size="66.0" fill="#FF4400" transform="matrix(1.00, 0.00, -0.00, -1.00, 601.9, 529.7)">t</text><text xml:space="preserve" font-family="Apercu-Bold,Apercu" font-weight="bold" font-size="66.0" fill="#FF4400" transform="matrix(1.00, 0.00, -0.00, -1.00, 627.5, 529.7)">o</text><text xml:space="preserve" font-family="Apercu-Bold,Apercu" font-weight="bold" font-size="66.0" fill="#FF4400" transform="matrix(1.00, 0.00, -0.00, -1.00, 666.9, 529.7)"> </text><text xml:space="preserve" font-family="Apercu-Bold,Apercu" font-weight="bold" font-size="66.0" fill="#FF4400" transform="matrix(1.00, 0.00, -0.00, -1.00, 683.3, 529.7)">c</text><text xml:space="preserve" font-family="Apercu-Bold,Apercu" font-weight="bold" font-size="66.0" fill="#FF4400" transform="matrix(1.00, 0.00, -0.00, -1.00, 718.8, 529.7)">r</text><text xml:space="preserve" font-family="Apercu-Bold,Apercu" font-weight="bold" font-size="66.0" fill="#FF4400" transform="matrix(1.00, 0.00, -0.00, -1.00, 746.8, 529.7)">e</text><text xml:space="preserve" font-family="Apercu-Bold,Apercu" font-weight="bold" font-size="66.0" fill="#FF4400" transform="matrix(1.00, 0.00, -0.00, -1.00, 784.2, 529.7)">a</text><text xml:space="preserve" font-family="Apercu-Bold,Apercu" font-weight="bold" font-size="66.0" fill="#FF4400" transform="matrix(1.00, 0.00, -0.00, -1.00, 818.5, 529.7)">t</text><text xml:space="preserve" font-family="Apercu-Bold,Apercu" font-weight="bold" font-size="66.0" fill="#FF4400" transform="matrix(1.00, 0.00, -0.00, -1.00, 844.1, 529.7)">e</text><text xml:space="preserve" font-family="Apercu-Bold,Apercu" font-weight="bold" font-size="66.0" fill="#FF4400" transform="matrix(1.00, 0.00, -0.00, -1.00, 880.8, 529.7)"> </text><text xml:space="preserve" font-family="Apercu-Bold,Apercu" font-weight="bold" font-size="66.0" fill="#FF4400" transform="matrix(1.00, 0.00, -0.00, -1.00, 897.1, 529.7)">a</text><text xml:space="preserve" font-family="Apercu-Bold,Apercu" font-weight="bold" font-size="66.0" fill="#FF4400" transform="matrix(1.00, 0.00, -0.00, -1.00, 930.6, 529.7)">m</text><text xml:space="preserve" font-family="Apercu-Bold,Apercu" font-weight="bold" font-size="66.0" fill="#FF4400" transform="matrix(1.00, 0.00, -0.00, -1.00, 986.8, 529.7)">b</text><text xml:space="preserve" font-family="Apercu-Bold,Apercu" font-weight="bold" font-size="66.0" fill="#FF4400" transform="matrix(1.00, 0.00, -0.00, -1.00, 1026.0, 529.7)">i</text><text xml:space="preserve" font-family="Apercu-Bold,Apercu" font-weight="bold" font-size="66.0" fill="#FF4400" transform="matrix(1.00, 0.00, -0.00, -1.00, 1043.8, 529.7)">t</text><text xml:space="preserve" font-family="Apercu-Bold,Apercu" font-weight="bold" font-size="66.0" fill="#FF4400" transform="matrix(1.00, 0.00, -0.00, -1.00, 1069.7, 529.7)">i</text><text xml:space="preserve" font-family="Apercu-Bold,Apercu" font-weight="bold" font-size="66.0" fill="#FF4400" transform="matrix(1.00, 0.00, -0.00, -1.00, 1087.4, 529.7)">o</text><text xml:space="preserve" font-family="Apercu-Bold,Apercu" font-weight="bold" font-size="66.0" fill="#FF4400" transform="matrix(1.00, 0.00, -0.00, -1.00, 1126.7, 529.7)">u</text><text xml:space="preserve" font-family="Apercu-Bold,Apercu" font-weight="bold" font-size="66.0" fill="#FF4400" transform="matrix(1.00, 0.00, -0.00, -1.00, 1163.8, 529.7)">s</text><text xml:space="preserve" font-family="Apercu-Bold,Apercu" font-weight="bold" font-size="66.0" fill="#FF4400" transform="matrix(1.00, 0.00, -0.00, -1.00, 1193.9, 529.7)"> </text><text xml:space="preserve" font-family="Apercu-Bold,Apercu" font-weight="bold" font-size="66.0" fill="#FF4400" transform="matrix(1.00, 0.00, -0.00, -1.00, 1210.3, 529.7)">w</text><text xml:space="preserve" font-family="Apercu-Bold,Apercu" font-weight="bold" font-size="66.0" fill="#FF4400" transform="matrix(1.00, 0.00, -0.00, -1.00, 1260.3, 529.7)">e</text><text xml:space="preserve" font-family="Apercu-Bold,Apercu" font-weight="bold" font-size="66.0" fill="#FF4400" transform="matrix(1.00, 0.00, -0.00, -1.00, 1297.0, 529.7)">b</text><text xml:space="preserve" font-family="Apercu-Bold,Apercu" font-weight="bold" font-size="66.0" fill="#FF4400" transform="matrix(1.00, 0.00, -0.00, -1.00, 1336.5, 529.7)"> </text><text xml:space="preserve" font-family="Apercu-Bold,Apercu" font-weight="bold" font-size="66.0" fill="#FF4400" transform="matrix(1.00, 0.00, -0.00, -1.00, 1352.9, 529.7)">a</text><text xml:space="preserve" font-family="Apercu-Bold,Apercu" font-weight="bold" font-size="66.0" fill="#FF4400" transform="matrix(1.00, 0.00, -0.00, -1.00, 1386.4, 529.7)">p</text><text xml:space="preserve" font-family="Apercu-Bold,Apercu" font-weight="bold" font-size="66.0" fill="#FF4400" transform="matrix(1.00, 0.00, -0.00, -1.00, 1425.8, 529.7)">p</text><text xml:space="preserve" font-family="Apercu-Bold,Apercu" font-weight="bold" font-size="66.0" fill="#FF4400" transform="matrix(1.00, 0.00, -0.00, -1.00, 1465.1, 529.7)">l</text><text xml:space="preserve" font-family="Apercu-Bold,Apercu" font-weight="bold" font-size="66.0" fill="#FF4400" transform="matrix(1.00, 0.00, -0.00, -1.00, 1482.6, 529.7)">i</text><text xml:space="preserve" font-family="Apercu-Bold,Apercu" font-weight="bold" font-size="66.0" fill="#FF4400" transform="matrix(1.00, 0.00, -0.00, -1.00, 1500.3, 529.7)">c</text><text xml:space="preserve" font-family="Apercu-Bold,Apercu" font-weight="bold" font-size="66.0" fill="#FF4400" transform="matrix(1.00, 0.00, -0.00, -1.00, 1537.0, 529.7)">a</text><text xml:space="preserve" font-family="Apercu-Bold,Apercu" font-weight="bold" font-size="66.0" fill="#FF4400" transform="matrix(1.00, 0.00, -0.00, -1.00, 1571.3, 529.7)">t</text><text xml:space="preserve" font-family="Apercu-Bold,Apercu" font-weight="bold" font-size="66.0" fill="#FF4400" transform="matrix(1.00, 0.00, -0.00, -1.00, 1597.2, 529.7)">i</text><text xml:space="preserve" font-family="Apercu-Bold,Apercu" font-weight="bold" font-size="66.0" fill="#FF4400" transform="matrix(1.00, 0.00, -0.00, -1.00, 1615.0, 529.7)">o</text><text xml:space="preserve" font-family="Apercu-Bold,Apercu" font-weight="bold" font-size="66.0" fill="#FF4400" transform="matrix(1.00, 0.00, -0.00, -1.00, 1653.7, 529.7)">n</text><text xml:space="preserve" font-family="Apercu-Bold,Apercu" font-weight="bold" font-size="66.0" fill="#FF4400" transform="matrix(1.00, 0.00, -0.00, -1.00, 1691.8, 529.7)">s</text></g></svg>