<?xml version="1.0" encoding="UTF-8" standalone="no"?><svg xmlns="http://www.w3.org/2000/svg" xmlns:xlink="http://www.w3.org/1999/xlink" clip-rule="evenodd" stroke-miterlimit="10" viewBox="0 0 1920 1080"><desc>SVG generated by Keynote</desc><defs></defs><g transform="matrix(1.00, 0.00, -0.00, -1.00, 0.0, 1080.0)"><path d="M 0.0 1080.0 L 1920.0 1080.0 L 1920.0 0.0 L 0.0 0.0 Z M 0.0 1080.0 " fill="#FEFFFE"></path><g opacity="0.75"><g><clipPath id="clip0x6000008a1500"><path d="M 79.0 4.0 L 1841.0 4.0 L 1841.0 25.0 L 79.0 25.0 Z M 79.0 4.0 "></path></clipPath><g clip-path="url(#clip0x6000008a1500)"><text xml:space="preserve" font-family="Apercu,Apercu" font-size="10.0" fill="#999999" transform="matrix(1.00, 0.00, -0.00, -1.00, 903.0, 11.2)">©</text><text xml:space="preserve" font-family="Apercu,Apercu" font-size="10.0" fill="#999999" transform="matrix(1.00, 0.00, -0.00, -1.00, 912.0, 11.2)"> </text><text xml:space="preserve" font-family="Apercu,Apercu" font-size="10.0" fill="#999999" transform="matrix(1.00, 0.00, -0.00, -1.00, 914.6, 11.2)">2</text><text xml:space="preserve" font-family="Apercu,Apercu" font-size="10.0" fill="#999999" transform="matrix(1.00, 0.00, -0.00, -1.00, 920.2, 11.2)">0</text><text xml:space="preserve" font-family="Apercu,Apercu" font-size="10.0" fill="#999999" transform="matrix(1.00, 0.00, -0.00, -1.00, 926.2, 11.2)">1</text><text xml:space="preserve" font-family="Apercu,Apercu" font-size="10.0" fill="#999999" transform="matrix(1.00, 0.00, -0.00, -1.00, 929.7, 11.2)">4</text><text xml:space="preserve" font-family="Apercu,Apercu" font-size="10.0" fill="#999999" transform="matrix(1.00, 0.00, -0.00, -1.00, 935.7, 11.2)"> </text><text xml:space="preserve" font-family="Apercu,Apercu" font-size="10.0" fill="#999999" transform="matrix(1.00, 0.00, -0.00, -1.00, 938.3, 11.2)">T</text><text xml:space="preserve" font-family="Apercu,Apercu" font-size="10.0" fill="#999999" transform="matrix(1.00, 0.00, -0.00, -1.00, 943.6, 11.2)">h</text><text xml:space="preserve" font-family="Apercu,Apercu" font-size="10.0" fill="#999999" transform="matrix(1.00, 0.00, -0.00, -1.00, 949.3, 11.2)">e</text><text xml:space="preserve" font-family="Apercu,Apercu" font-size="10.0" fill="#999999" transform="matrix(1.00, 0.00, -0.00, -1.00, 954.9, 11.2)"> </text><text xml:space="preserve" font-family="Apercu,Apercu" font-size="10.0" fill="#999999" transform="matrix(1.00, 0.00, -0.00, -1.00, 957.6, 11.2)">A</text><text xml:space="preserve" font-family="Apercu,Apercu" font-size="10.0" fill="#999999" transform="matrix(1.00, 0.00, -0.00, -1.00, 963.5, 11.2)">p</text><text xml:space="preserve" font-family="Apercu,Apercu" font-size="10.0" fill="#999999" transform="matrix(1.00, 0.00, -0.00, -1.00, 969.5, 11.2)">p</text><text xml:space="preserve" font-family="Apercu,Apercu" font-size="10.0" fill="#999999" transform="matrix(1.00, 0.00, -0.00, -1.00, 975.5, 11.2)"> </text><text xml:space="preserve" font-family="Apercu,Apercu" font-size="10.0" fill="#999999" transform="matrix(1.00, 0.00, -0.00, -1.00, 978.2, 11.2)">B</text><text xml:space="preserve" font-family="Apercu,Apercu" font-size="10.0" fill="#999999" transform="matrix(1.00, 0.00, -0.00, -1.00, 984.4, 11.2)">u</text><text xml:space="preserve" font-family="Apercu,Apercu" font-size="10.0" fill="#999999" transform="matrix(1.00, 0.00, -0.00, -1.00, 990.0, 11.2)">s</text><text xml:space="preserve" font-family="Apercu,Apercu" font-size="10.0" fill="#999999" transform="matrix(1.00, 0.00, -0.00, -1.00, 994.4, 11.2)">i</text><text xml:space="preserve" font-family="Apercu,Apercu" font-size="10.0" fill="#999999" transform="matrix(1.00, 0.00, -0.00, -1.00, 996.8, 11.2)">n</text><text xml:space="preserve" font-family="Apercu,Apercu" font-size="10.0" fill="#999999" transform="matrix(1.00, 0.00, -0.00, -1.00, 1002.4, 11.2)">e</text><text xml:space="preserve" font-family="Apercu,Apercu" font-size="10.0" fill="#999999" transform="matrix(1.00, 0.00, -0.00, -1.00, 1007.9, 11.2)">s</text><text xml:space="preserve" font-family="Apercu,Apercu" font-size="10.0" fill="#999999" transform="matrix(1.00, 0.00, -0.00, -1.00, 1012.4, 11.2)">s</text></g></g></g><image xlink:href="6CE99FAEBD650F2EDA0A5B6256FAEF1E.png" width="202.00" height="230.00" transform="matrix(1.00, 0.00, -0.00, -1.00, 1363.0, 692.0)"></image><image xlink:href="5EF481223B7A031AF8FAEFB283860140.png" width="420.00" height="420.00" transform="matrix(1.00, 0.00, -0.00, -1.00, 124.0, 647.0)"></image><image xlink:href="746B68E6DC8D5175FAEC25C3EBD488BC.jpeg" width="451.00" height="100.00" transform="matrix(1.00, 0.00, -0.00, -1.00, 709.0, 366.0)"></image><image xlink:href="D4EEC3F7C6429CF07D3E97155EA91635.png" width="210.00" height="103.00" transform="matrix(2.15, 0.00, -0.00, -2.15, 1355.0, 337.0)"></image><g><clipPath id="clip0x6000008a1a40"><path d="M 724.0 647.0 L 1144.0 647.0 L 1144.0 441.0 L 724.0 441.0 Z M 724.2 646.6 "></path></clipPath><g clip-path="url(#clip0x6000008a1a40)"><image xlink:href="0561AD572D6E8CCB1417CC6EAB318DD0.png" width="210.00" height="103.00" transform="matrix(2.00, 0.00, -0.00, -2.00, 724.0, 647.0)"></image></g></g><image xlink:href="505A847CDDCB779B8378B2E3798D2315.png" width="210.00" height="103.00" transform="matrix(1.96, 0.00, -0.00, -1.96, 1216.0, 902.0)"></image><image xlink:href="F7DE957E4A985AEA88DA8D71007E2BE5.png" width="210.00" height="103.00" transform="matrix(1.51, 0.00, -0.00, -1.51, 594.0, 862.0)"></image><image xlink:href="5D7B603EE7CA016AAAB5C8F8C293284F.png" width="210.00" height="103.00" transform="matrix(1.64, 0.00, -0.00, -1.64, 162.0, 841.0)"></image><image xlink:href="1933CA7BEF5BB3D8F2A3E80F96D9D107.png" width="210.00" height="103.00" transform="matrix(1.64, 0.00, -0.00, -1.64, 862.0, 240.0)"></image><text xml:space="preserve" font-family="Apercu-Bold,Apercu" font-weight="bold" font-size="66.0" fill="#FF4400" transform="matrix(1.00, 0.00, -0.00, -1.00, 564.6, 978.2)">A</text><text xml:space="preserve" font-family="Apercu-Bold,Apercu" font-weight="bold" font-size="66.0" fill="#FF4400" transform="matrix(1.00, 0.00, -0.00, -1.00, 604.9, 978.2)">m</text><text xml:space="preserve" font-family="Apercu-Bold,Apercu" font-weight="bold" font-size="66.0" fill="#FF4400" transform="matrix(1.00, 0.00, -0.00, -1.00, 661.1, 978.2)">b</text><text xml:space="preserve" font-family="Apercu-Bold,Apercu" font-weight="bold" font-size="66.0" fill="#FF4400" transform="matrix(1.00, 0.00, -0.00, -1.00, 700.3, 978.2)">i</text><text xml:space="preserve" font-family="Apercu-Bold,Apercu" font-weight="bold" font-size="66.0" fill="#FF4400" transform="matrix(1.00, 0.00, -0.00, -1.00, 718.1, 978.2)">t</text><text xml:space="preserve" font-family="Apercu-Bold,Apercu" font-weight="bold" font-size="66.0" fill="#FF4400" transform="matrix(1.00, 0.00, -0.00, -1.00, 744.0, 978.2)">i</text><text xml:space="preserve" font-family="Apercu-Bold,Apercu" font-weight="bold" font-size="66.0" fill="#FF4400" transform="matrix(1.00, 0.00, -0.00, -1.00, 761.7, 978.2)">o</text><text xml:space="preserve" font-family="Apercu-Bold,Apercu" font-weight="bold" font-size="66.0" fill="#FF4400" transform="matrix(1.00, 0.00, -0.00, -1.00, 801.0, 978.2)">u</text><text xml:space="preserve" font-family="Apercu-Bold,Apercu" font-weight="bold" font-size="66.0" fill="#FF4400" transform="matrix(1.00, 0.00, -0.00, -1.00, 838.2, 978.2)">s</text><text xml:space="preserve" font-family="Apercu-Bold,Apercu" font-weight="bold" font-size="66.0" fill="#FF4400" transform="matrix(1.00, 0.00, -0.00, -1.00, 868.2, 978.2)">:</text><text xml:space="preserve" font-family="Apercu-Bold,Apercu" font-weight="bold" font-size="66.0" fill="#FF4400" transform="matrix(1.00, 0.00, -0.00, -1.00, 890.6, 978.2)"> </text><text xml:space="preserve" font-family="Apercu-Bold,Apercu" font-weight="bold" font-size="66.0" fill="#FF4400" transform="matrix(1.00, 0.00, -0.00, -1.00, 906.9, 978.2)">B</text><text xml:space="preserve" font-family="Apercu-Bold,Apercu" font-weight="bold" font-size="66.0" fill="#FF4400" transform="matrix(1.00, 0.00, -0.00, -1.00, 948.1, 978.2)">i</text><text xml:space="preserve" font-family="Apercu-Bold,Apercu" font-weight="bold" font-size="66.0" fill="#FF4400" transform="matrix(1.00, 0.00, -0.00, -1.00, 964.9, 978.2)">g</text><text xml:space="preserve" font-family="Apercu-Bold,Apercu" font-weight="bold" font-size="66.0" fill="#FF4400" transform="matrix(1.00, 0.00, -0.00, -1.00, 998.9, 978.2)"> </text><text xml:space="preserve" font-family="Apercu-Bold,Apercu" font-weight="bold" font-size="66.0" fill="#FF4400" transform="matrix(1.00, 0.00, -0.00, -1.00, 1015.3, 978.2)">&amp;</text><text xml:space="preserve" font-family="Apercu-Bold,Apercu" font-weight="bold" font-size="66.0" fill="#FF4400" transform="matrix(1.00, 0.00, -0.00, -1.00, 1061.2, 978.2)"> </text><text xml:space="preserve" font-family="Apercu-Bold,Apercu" font-weight="bold" font-size="66.0" fill="#FF4400" transform="matrix(1.00, 0.00, -0.00, -1.00, 1077.6, 978.2)">S</text><text xml:space="preserve" font-family="Apercu-Bold,Apercu" font-weight="bold" font-size="66.0" fill="#FF4400" transform="matrix(1.00, 0.00, -0.00, -1.00, 1114.0, 978.2)">c</text><text xml:space="preserve" font-family="Apercu-Bold,Apercu" font-weight="bold" font-size="66.0" fill="#FF4400" transform="matrix(1.00, 0.00, -0.00, -1.00, 1150.7, 978.2)">a</text><text xml:space="preserve" font-family="Apercu-Bold,Apercu" font-weight="bold" font-size="66.0" fill="#FF4400" transform="matrix(1.00, 0.00, -0.00, -1.00, 1184.1, 978.2)">l</text><text xml:space="preserve" font-family="Apercu-Bold,Apercu" font-weight="bold" font-size="66.0" fill="#FF4400" transform="matrix(1.00, 0.00, -0.00, -1.00, 1202.2, 978.2)">a</text><text xml:space="preserve" font-family="Apercu-Bold,Apercu" font-weight="bold" font-size="66.0" fill="#FF4400" transform="matrix(1.00, 0.00, -0.00, -1.00, 1235.5, 978.2)">b</text><text xml:space="preserve" font-family="Apercu-Bold,Apercu" font-weight="bold" font-size="66.0" fill="#FF4400" transform="matrix(1.00, 0.00, -0.00, -1.00, 1274.8, 978.2)">l</text><text xml:space="preserve" font-family="Apercu-Bold,Apercu" font-weight="bold" font-size="66.0" fill="#FF4400" transform="matrix(1.00, 0.00, -0.00, -1.00, 1292.9, 978.2)">e</text><image xlink:href="D9AC4E7AF44BC01459BB65A68C4E99FA.png" width="518.00" height="518.00" transform="matrix(0.57, 0.00, -0.00, -0.57, 389.0, 278.0)"></image></g></svg>